<?xml version="1.0" encoding="UTF-8" standalone="no"?>
<!-- Created with Inkscape (http://www.inkscape.org/) -->

<svg
   xmlns:dc="http://purl.org/dc/elements/1.1/"
   xmlns:cc="http://creativecommons.org/ns#"
   xmlns:rdf="http://www.w3.org/1999/02/22-rdf-syntax-ns#"
   xmlns:svg="http://www.w3.org/2000/svg"
   xmlns="http://www.w3.org/2000/svg"
   xmlns:sodipodi="http://sodipodi.sourceforge.net/DTD/sodipodi-0.dtd"
   xmlns:inkscape="http://www.inkscape.org/namespaces/inkscape"
   width="744.09448819"
   height="1052.3622047"
   id="svg2"
   version="1.1"
   inkscape:version="0.48.4 r9939"
   sodipodi:docname="healthpotion.svg"
   inkscape:export-filename="/home/renmai/git/eduras/Eduras/src/de/illonis/eduras/images/gameobjects/healthpotion.png"
   inkscape:export-xdpi="2.4200001"
   inkscape:export-ydpi="2.4200001">
  <defs
     id="defs4" />
  <sodipodi:namedview
     id="base"
     pagecolor="#ffffff"
     bordercolor="#666666"
     borderopacity="1.0"
     inkscape:pageopacity="0"
     inkscape:pageshadow="2"
     inkscape:zoom="0.35"
     inkscape:cx="386.42858"
     inkscape:cy="742.85714"
     inkscape:document-units="px"
     inkscape:current-layer="layer1"
     showgrid="false"
     inkscape:window-width="1920"
     inkscape:window-height="1023"
     inkscape:window-x="1280"
     inkscape:window-y="22"
     inkscape:window-maximized="1" />
  <metadata
     id="metadata7">
    <rdf:RDF>
      <cc:Work
         rdf:about="">
        <dc:format>image/svg+xml</dc:format>
        <dc:type
           rdf:resource="http://purl.org/dc/dcmitype/StillImage" />
        <dc:title />
      </cc:Work>
    </rdf:RDF>
  </metadata>
  <g
     inkscape:label="Layer 1"
     inkscape:groupmode="layer"
     id="layer1">
    <path
       sodipodi:type="arc"
       style="fill:#668000;fill-opacity:1;stroke:#00fb00;stroke-opacity:1"
       id="path2987"
       sodipodi:cx="392.85715"
       sodipodi:cy="549.50507"
       sodipodi:rx="375.71429"
       sodipodi:ry="500"
       d="m 768.57144,549.50507 a 375.71429,500 0 1 1 -751.428587,0 375.71429,500 0 1 1 751.428587,0 z"
       transform="matrix(0.92451237,0,0,0.75103733,-4.5747308,103.72793)" />
    <path
       style="fill:#ccff00;fill-opacity:1;stroke:#00fb00;stroke-width:0.83488679;stroke-opacity:1"
       id="path2997"
       d="m 44.579274,421.78324 c 8.393098,1.49821 16.563504,3.5434 25.068955,4.69213 5.918165,0.52479 11.74586,0.72032 17.581707,1.61566 5.940366,0.89885 11.999566,1.05217 18.034404,1.18392 8.71033,0.12762 17.42314,0.12142 26.13479,0.13087 9.96999,-0.005 19.93997,-0.0107 29.90999,-0.007 9.20357,1.5163 18.38791,2.85365 27.77021,3.52895 9.96721,0.94853 20.16279,-0.17222 30.00909,1.31877 8.85002,1.89488 17.95622,2.64965 27.09697,3.10522 10.29451,0.38491 20.60573,0.40434 30.91038,0.40182 9.82537,-0.0113 19.65076,-0.0208 29.4761,-0.0436 8.90957,-0.003 17.81912,-0.005 26.72865,-0.0252 6.45776,-0.0184 12.91552,-0.0303 19.37332,-0.0363 5.4929,-0.004 10.98579,-0.003 16.47869,-0.003 5.45611,8e-5 10.91223,2.4e-4 16.36834,3.2e-4 5.46886,7e-5 10.93772,7e-5 16.40659,8e-5 5.47024,0 10.94048,0 16.41073,0 5.47013,0 10.94025,0 16.41039,0 5.50907,0.19755 10.8183,0.006 16.2106,-0.79466 5.45548,-0.81701 11.00864,-1.06286 16.55258,-1.21076 5.48782,-0.10716 10.97807,-0.0936 16.46722,-0.0903 5.5398,0.42314 10.7981,-0.43746 16.20835,-1.13487 5.48184,-0.6654 11.03535,-0.80901 16.57491,-0.90091 5.48255,-0.062 10.96597,-0.0472 16.44894,-0.042 5.47007,0.006 10.94014,0.01 16.41021,0.0113 5.4162,0.18448 10.93115,-0.43318 16.2595,0.41077 4.65027,0.96919 9.43558,1.31863 14.23081,1.52375 4.79251,0.25908 9.39018,1.40574 14.19011,1.83714 5.15229,0.3682 10.333,0.38041 15.50336,0.40373 5.46123,0.011 10.92252,-5.8e-4 16.38375,-0.005 4.82084,-0.12493 9.46253,-1.28353 14.29065,-1.69673 4.59677,-0.54925 8.97854,-1.67697 13.66478,-2.0962 3.41196,-0.4817 6.97493,-0.0177 10.38764,-0.36251 1.50861,-0.15244 2.94132,-0.59557 4.41526,-0.88379 3.08236,-0.80432 6.4505,-0.50901 9.5869,-0.98242 1.44305,-0.21781 2.79045,-0.71095 4.19874,-1.03465 4.79049,-0.9557 9.76101,-1.0966 14.68423,-1.22027 1.70193,0.42361 7.25769,-0.63377 8.67877,-0.12998 1.39454,0.49437 1.94124,2.16512 2.4171,2.99285 -0.45433,2.55762 -3.60533,4.05445 -5.80838,5.81705 -3.05205,1.8708 -4.9296,4.53613 -7.40383,6.80414 -2.88866,2.63144 -3.40184,5.96675 -3.80095,9.25532 -0.33859,4.07211 -0.28858,8.15562 -0.27913,12.23375 -0.30019,3.68873 -1.5141,7.27812 -2.09008,10.9464 -0.52104,3.978 -0.56006,7.97973 -0.60309,11.97355 0.39879,3.8939 -0.53009,7.65668 -1.47186,11.4539 -0.52581,3.47484 -2.15347,6.74989 -3.03393,10.16969 -0.54453,3.69998 -0.92369,7.35994 -1.98778,11.00084 -0.77389,3.83442 -2.09221,7.5797 -3.10889,11.37664 -1.06807,3.99331 -0.98144,8.07946 -1.48255,12.11717 -0.64234,3.78059 -2.47214,7.33538 -3.72915,11.00219 -0.6758,3.7028 -1.93026,7.29963 -3.01915,10.93732 -1.28643,3.35761 -0.47058,6.59431 0.23483,9.94524 0.80535,3.91836 0.99301,7.88558 1.12317,11.84355 0.0544,4.06465 0.37427,8.12973 -0.49373,12.15451 -3.16087,13.77749 -24.65119,20.82434 -42.19967,22.81234 -5.25197,0.41394 -10.54303,0.3467 -15.81548,0.32755 -5.49748,-0.0318 -10.99501,-0.0535 -16.49261,-0.0654 -5.47537,-0.01 -10.95075,-0.01 -16.42612,-0.0107 -5.47002,-10e-5 -10.94002,2.2e-4 -16.41003,3.8e-4 -5.47001,1.4e-4 -10.94003,1.6e-4 -16.41004,1.8e-4 -5.4701,1e-5 -10.94019,1e-5 -16.4103,1e-5 -5.47011,-1e-5 -10.94021,-1e-5 -16.41031,-1e-5 -5.47011,0 -10.9402,0 -16.41031,0 -4.93535,-0.0511 -9.696,-1.23145 -14.60962,-1.67231 -5.14966,-0.37312 -10.32815,-0.39141 -15.49644,-0.41795 -5.5135,-0.14515 -11.07323,0.3531 -16.51663,-0.39631 -5.32363,-0.38345 -10.27428,-1.67312 -15.38963,-2.72197 -4.8192,-0.84739 -9.78428,-0.93345 -14.70635,-1.01926 -5.39273,-0.94206 -10.85193,-1.53294 -16.36419,-1.85099 -5.38859,-1.10296 -10.88014,-1.74246 -16.43336,-2.08174 -5.4266,-0.26107 -10.86705,-0.25604 -16.30206,-0.26264 -5.46766,10e-4 -10.93531,0.0111 -16.40297,0.0159 -5.47053,0.004 -10.94105,0.004 -16.41157,0.005 -4.71721,-0.89073 -9.46564,-1.52007 -14.30757,-1.82585 -5.2507,-0.25884 -10.51551,-0.25896 -15.77487,-0.27023 -5.4679,-0.003 -10.93579,0.005 -16.4037,0.0107 -5.01986,-0.41882 -9.69066,0.90762 -14.58232,1.48623 -5.14776,0.50467 -10.3462,0.5515 -15.52841,0.59872 -4.80438,0.15909 -9.43236,1.29454 -14.25005,1.69976 -5.0803,0.59118 -10.36119,-0.15907 -15.33458,0.82361 -4.52354,0.41907 -8.5488,1.8373 -12.88398,2.74226 -4.68559,0.24407 -8.98347,1.39085 -13.51031,2.18673 -5.08385,0.45721 -9.90276,1.69213 -14.9646,2.30098 -5.4744,0.56033 -11.00602,0.61495 -16.52029,0.66029 -5.4841,0.0239 -10.96834,0.007 -16.45247,3e-5 -5.47047,-0.007 -10.94093,-0.01 -16.4114,-0.0107 -5.41621,-0.18395 -10.93115,0.43384 -16.25952,-0.41005 -4.52207,-0.47291 -8.42222,-2.22911 -12.83392,-3.01859 -5.06386,-0.28944 -9.93405,-1.1947 -14.912139,-1.90295 -5.220812,-0.20861 -10.142095,-1.2045 -15.201501,-2.08139 -4.783707,-0.18653 -8.785368,-1.61155 -12.90256,-3.29803 -3.629062,-1.56373 -7.026416,-2.85861 -11.184916,-3.40759 -5.021564,-0.48299 -10.09624,-0.46496 -15.148963,-0.48108 -5.469383,-7e-4 -10.938735,0.0172 -16.408101,0.0261 -5.95468,-0.15317 -9.26908,1.51917 -11.596425,-3.55625 0.0588,-3.10482 2.018921,-6.05874 3.116024,-9.06404 1.826863,-3.25481 2.701425,-6.67028 3.181377,-10.16927 0.09993,-3.68294 1.483847,-7.22394 2.252822,-10.83752 0.712431,-3.89488 0.787023,-7.83367 0.857967,-11.75897 0.432453,-3.6483 1.411776,-7.26389 2.319417,-10.86264 1.476828,-3.34037 2.328745,-6.76075 2.779151,-10.2597 0.149898,-3.86785 0.418507,-7.66361 1.438301,-11.4585 1.073087,-3.68058 1.367825,-7.44528 1.559745,-11.20065 0.153792,-4.11976 0.138261,-8.24176 0.136547,-12.36275 -0.006,-4.16482 -0.01217,-8.32962 -0.01543,-12.49443 -0.0027,-4.16173 -0.0028,-8.32346 -0.0031,-12.48518 0.461196,-3.74446 -0.636382,-7.33417 -1.506788,-10.98163 -0.466677,-3.61166 -1.157234,-7.13436 -2.243554,-10.66589 -1.081033,-3.56113 -1.127665,-7.21177 -2.225904,-10.76611 -1.305912,-3.70079 -1.754588,-7.51355 -2.033181,-11.32487 -0.04244,-0.50518 -0.08486,-1.01034 -0.127293,-1.51553 0,0 36.232309,-14.18693 36.232309,-14.18693 l 0,0 c 0.01283,0.50794 0.02566,1.01587 0.03849,1.52382 0.202011,3.62415 0.495722,7.26465 1.715208,10.78906 1.178622,3.57193 1.433208,7.17348 2.245801,10.79765 1.07955,3.59077 2.102286,7.11872 2.3361,10.81562 0.852291,3.81781 2.290978,7.55915 1.788015,11.47712 6.3e-5,4.16129 5.2e-5,8.3226 0.0021,12.48387 0.0021,4.16465 0.0074,8.3293 0.01504,12.49393 0.0063,4.14923 0.02472,8.29887 -0.06689,12.44767 -0.124829,3.89723 -0.286057,7.81163 -1.212095,11.65612 -0.9945,3.712 -1.995602,7.29881 -1.683086,11.1324 -0.305212,3.6391 -0.7295,7.30805 -2.413959,10.75528 -1.561425,3.24596 -1.380846,6.87803 -2.832923,10.18194 -0.03757,4.03678 -0.06886,8.08162 -0.588226,12.10289 -0.570995,3.61502 -1.999131,7.08648 -2.367799,10.69277 -0.325819,3.68985 -0.769605,7.42322 -2.680852,10.86847 -1.418988,2.39182 -1.145519,5.84558 -3.956842,7.56651 -1.129891,0.63292 9.353472,-0.61371 8.420267,-0.0142 5.480696,-0.0107 10.961622,-0.0335 16.442219,0.003 5.254688,0.066 10.561741,0.11353 15.710763,1.00646 4.221933,0.91958 7.925604,2.51315 11.797884,4.05258 3.87579,1.52262 8.0223,2.08901 12.29146,2.66751 4.97662,0.93248 10.00965,1.37758 15.06444,2.00099 5.04255,0.77577 10.14542,1.19667 15.15414,2.07636 4.13455,1.0055 8.0927,2.43089 12.49128,2.68253 5.2957,0.20969 10.60572,0.0268 15.90655,0.09 5.4714,0.002 10.94281,0.005 16.41421,0.0136 5.46801,0.006 10.93664,0.0238 16.40403,-0.0502 5.39673,-0.10786 10.8153,-0.26949 16.12605,-1.07162 4.96048,-0.8045 9.88053,-1.73471 14.85394,-2.4889 4.4346,-0.92998 8.98883,-1.29558 13.3903,-2.31636 4.30473,-1.12501 8.72325,-1.85174 13.2297,-2.35943 5.12435,-0.20757 10.2778,-0.18852 15.36183,-0.79211 4.81761,-0.60933 9.57084,-1.60313 14.50439,-1.39292 5.08278,-0.10997 10.18452,-0.26536 15.19054,-1.00135 4.96222,-0.74321 9.86949,-1.33126 14.95955,-1.03244 5.47425,-0.005 10.94855,-0.0159 16.42276,0.005 5.34809,0.0372 10.70719,0.0761 16.03164,0.50133 4.70217,0.44348 9.30762,1.35565 14.03429,1.58038 5.46966,-7.3e-4 10.93931,-0.002 16.40897,-0.007 5.47248,-0.005 10.94503,-0.0182 16.4175,-6.6e-4 5.51224,0.0339 11.03446,0.0756 16.52385,0.50003 5.52301,0.49521 10.92901,1.41904 16.41751,2.06452 5.44138,0.45006 10.79559,1.31365 16.24015,1.70174 5.15469,0.18553 10.33379,0.47493 15.30389,1.61423 4.90703,1.11506 9.8681,1.93588 14.97517,2.34109 5.41887,0.20135 10.8478,0.0342 16.27128,0.12629 5.2852,0.066 10.58645,0.14972 15.82793,0.72018 4.73264,0.57594 9.40805,1.58465 14.24695,1.34296 5.4701,0 10.9402,0 16.41031,0 5.4701,0 10.9402,0 16.41031,0 5.4701,0 10.94019,10e-6 16.41029,-2e-5 5.46999,-3e-5 10.93998,-9e-5 16.40997,-2.6e-4 5.47021,-1.8e-4 10.94041,-5.8e-4 16.4106,3.7e-4 5.47763,10e-4 10.95526,0.003 16.43284,0.0189 5.49421,0.0171 10.98833,0.0514 16.48259,0.0525 5.07425,-0.029 10.27277,0.0587 15.17761,-1.06758 13.58527,-4.87775 0.0464,-0.0707 -31.07206,14.09774 -0.53287,0.24262 1.18974,-0.30003 1.71776,-0.54869 1.88023,-0.88544 2.39224,-2.36402 2.68488,-3.92907 1.18747,-3.82885 1.12845,-7.63729 0.9319,-11.56873 -0.0925,-3.82458 -0.20682,-7.6603 -0.91533,-11.45359 -0.75125,-3.64816 -2.03888,-7.23629 -0.88308,-10.9327 0.87121,-3.7198 2.66634,-7.23831 2.99876,-11.02959 0.99743,-3.67949 2.8332,-7.12159 3.83617,-10.79226 1.2153,-3.97853 0.3479,-8.18607 1.46587,-12.20462 0.84913,-3.85398 2.41796,-7.56126 3.00479,-11.44447 1.01089,-3.62085 2.12369,-7.12253 2.08664,-10.8651 0.63232,-3.50151 2.14061,-6.76533 3.01672,-10.19305 0.77645,-3.68011 2.34078,-7.23324 1.81777,-11.00903 0.0199,-4.07729 0.0303,-8.15898 0.3999,-12.22856 0.40839,-3.60473 1.14816,-7.15765 2.31167,-10.66915 -0.0178,-4.14322 -0.0671,-8.28831 0.12115,-12.42983 0.25343,-3.68359 0.51349,-7.47955 2.74767,-10.83174 2.24588,-2.52564 5.00557,-4.7529 7.07202,-7.38238 2.345,-1.30984 3.86781,-3.33933 6.64377,-4.01714 0.56823,0.5636 2.31184,1.50518 1.47065,1.81348 -1.80584,0.66184 -6.44409,-0.55744 -8.42482,0.13861 -4.80503,0.24935 -9.58846,0.67484 -14.20824,1.76772 -4.58447,0.82149 -9.3441,0.93874 -13.90729,1.88327 -4.94052,0.64095 -9.99077,0.40548 -14.931,1.10129 -4.57776,0.67211 -9.01684,1.82224 -13.69723,2.05849 -4.84277,0.61749 -9.62526,1.61762 -14.58758,1.33504 -5.47196,0.005 -10.94411,0.0187 -16.4159,-0.0219 -5.2908,-0.0619 -10.59953,-0.13583 -15.84541,-0.71583 -4.67055,-0.58978 -9.24775,-1.63541 -14.01471,-1.67383 -4.84727,-0.33485 -9.61305,-0.9736 -14.38945,-1.67117 -5.29576,-0.20986 -10.60588,-0.0273 -15.90681,-0.0909 -5.47014,-0.003 -10.94027,-0.007 -16.4104,-0.0115 -5.45742,1.1e-4 -10.91634,-0.009 -16.37168,0.12236 -5.44268,0.17188 -10.88175,0.47172 -16.24572,1.23206 -5.51668,0.69381 -11.01934,0.89216 -16.61226,0.72599 -5.45178,0.007 -10.90664,0.007 -16.35341,0.20833 -5.46063,0.25254 -10.8904,0.71369 -16.26802,1.4962 -5.51204,0.57065 -11.05885,0.369 -16.61004,0.39009 -5.47012,0 -10.94026,0 -16.41039,0 -5.47023,0 -10.94048,-1e-5 -16.41073,0 -5.46897,0 -10.93794,10e-6 -16.4069,9e-5 -5.45648,7e-5 -10.91296,2.3e-4 -16.36945,2.8e-4 -5.48797,-8e-5 -10.97593,-10e-6 -16.46389,-0.004 -6.41393,-0.005 -12.82786,-0.0184 -19.24176,-0.0358 -8.88757,-0.0188 -17.77517,-0.0172 -26.66277,-0.007 -9.80405,-0.006 -19.60811,0.0149 -29.41215,-0.005 -10.371,-0.0406 -20.75131,-0.0193 -31.1039,-0.56503 -9.23494,-0.57522 -18.34999,-1.62162 -27.36509,-3.27603 -9.88888,-0.8608 -19.92152,-0.27796 -29.81973,-1.21949 -9.24959,-0.80111 -18.28267,-2.42008 -27.50658,-3.27889 -9.97777,0.01 -19.95552,0.0155 -29.933273,0.0184 -8.788871,0.01 -17.579593,0.0438 -26.366308,-0.13374 -6.203308,-0.18797 -12.398819,-0.52602 -18.48658,-1.51078 -5.801547,-0.76196 -11.73066,-0.71439 -17.495588,-1.69871 -8.461869,-1.39841 -16.670209,-3.54065 -25.197025,-4.71321 0,0 33.369209,-17.60657 33.369209,-17.60657 z"
       inkscape:connector-curvature="0" />
    <path
       style="fill:#ccff00;fill-opacity:1;stroke:#00fb00;stroke-width:0.83488679;stroke-opacity:1"
       id="path2999"
       d="m 319.51019,158.86792 c 0.79921,6.90637 1.58756,13.81207 2.09962,20.7347 0.33474,4.75872 0.40561,9.52441 0.43684,14.28882 0.0137,4.15663 0.002,8.31327 -0.004,12.46991 -0.005,4.15103 -0.006,8.30207 -0.007,12.45311 0.58509,3.5614 1.6285,7.05675 2.15736,10.62944 0.5042,4.06686 0.5438,8.15532 0.58422,12.2367 0.0225,4.165 0.008,8.33006 0.003,12.49507 -0.005,4.16247 -0.007,8.32495 -0.008,12.48742 -7.5e-4,4.16089 -6.3e-4,8.3218 -6e-4,12.48269 -0.31539,3.67974 -1.54622,7.25684 -2.12973,10.91641 -0.19568,3.62494 -1.64707,7.09121 -2.4457,10.64647 -1.08915,3.38084 -2.2248,6.73837 -3.17976,10.14723 -1.22167,3.21746 -2.36543,6.42927 -3.82858,9.58807 -1.21545,3.35375 -1.83161,6.78388 -3.0153,10.14889 -0.92019,3.78166 -2.21351,7.50139 -3.22406,11.26873 -0.46723,3.79439 -1.68049,7.464 -2.7549,11.17259 -0.61794,3.45781 -2.22387,6.72694 -3.09581,10.14359 -0.81246,3.85833 -0.87132,7.77585 -0.94161,11.67374 0.2534,3.78061 -1.09156,7.43937 -1.85148,11.14078 -0.70318,3.8948 -0.79059,7.8316 -0.8669,11.75618 -0.13545,4.12814 0.15882,8.26377 -0.21479,12.38462 -0.89973,3.58984 -1.7331,7.16924 -2.15159,10.81252 -0.37061,4.04051 -0.37988,8.09334 -0.40058,12.14161 0.28849,3.7886 -1.06335,7.45565 -1.82858,11.16357 -0.43596,3.7352 -0.82729,7.41662 -1.9033,11.0815 -1.13324,3.65782 -1.41847,7.41245 -1.60997,11.15377 -0.1525,4.12084 -0.13505,8.24389 -0.13234,12.36594 0.22207,3.99242 0.006,7.90255 -1.01631,11.81945 -1.06568,3.67908 -1.3755,7.43929 -1.57357,11.19234 -0.15976,4.11758 -0.14507,8.23759 -0.14405,12.35653 -0.41594,4.23568 -1.55933,8.39849 -2.13919,12.62393 -0.48976,4.11017 -0.54108,8.23991 -0.58338,12.36372 -0.0237,4.1576 -0.009,8.31527 -0.004,12.47288 0.005,4.16128 0.007,8.32255 0.008,12.48383 7.7e-4,4.16094 6.5e-4,8.32188 6.2e-4,12.48282 -4e-5,4.16086 -7e-5,8.32173 -9e-5,12.48258 -0.19619,3.65128 1.1744,7.19088 1.87142,10.77729 0.68519,4.00951 0.77587,8.05741 0.84991,12.09446 0.0849,3.89288 -0.27676,7.7749 0.64643,11.61916 1.13473,3.7273 1.60653,7.52993 1.88768,11.34087 0.23514,4.13235 0.22808,8.26968 0.23356,12.40503 -0.002,4.1653 -0.0105,8.33059 -0.0144,12.49589 -0.004,4.16157 -0.004,8.32313 -0.005,12.48469 0.039,3.89067 -0.31115,7.77161 0.61979,11.6125 1.14296,3.72438 1.61696,7.52534 1.8996,11.33463 0.2364,4.13221 0.22923,8.26949 0.2347,12.40471 -0.002,4.16533 -0.0105,8.33066 -0.0145,12.49598 -0.004,4.16157 -0.004,8.32315 -0.005,12.48472 -2.1e-4,4.16083 -10e-5,8.32167 -7e-5,12.48251 5e-5,4.16084 7e-5,8.3217 8e-5,12.48256 0.58528,3.56195 1.62883,7.05784 2.15778,10.63109 0.50415,4.06675 0.54372,8.15509 0.58412,12.23635 -0.0624,4.14161 0.20407,8.29215 -0.18305,12.42576 -0.9127,3.58743 -1.75093,7.16518 -2.17206,10.80774 -0.68431,3.55398 -1.93674,7.00516 -2.53182,10.57528 -0.27865,3.81191 -0.59376,7.55896 -1.63308,11.29888 -1.09466,3.67279 -1.38496,7.43426 -1.57628,11.18489 -0.15288,4.12029 -0.13661,8.24282 -0.13449,12.36434 0.006,4.16487 0.0125,8.3298 0.0158,12.49473 0.0419,3.89153 -0.3083,7.77343 0.62293,11.61516 1.16517,2.52229 2.97309,4.92461 6.03395,6.32973 3.95856,1.45545 7.64228,0.58861 11.67347,-2.1e-4 0.7584,-0.0865 1.53968,-0.093 2.27517,-0.25836 1.34142,-0.30077 2.53179,-0.91726 3.85967,-1.25094 2.22167,-0.55848 4.4936,-0.80967 6.80132,-1.05189 5.23958,-0.42781 10.51724,-0.43347 15.78059,-0.45484 5.47556,-0.0107 10.95111,0.0107 16.42666,0.015 5.47391,0.0107 10.94782,0.0107 16.42174,0.0107 4.59266,-1.0394 9.29729,-1.55525 14.06034,-1.83967 5.32911,-0.24842 10.67097,-0.24767 16.00791,-0.25729 5.47354,0 10.94707,0.0107 16.42061,0.0118 5.01855,0.42567 9.68944,-0.89847 14.58016,-1.47617 5.14768,-0.5041 10.34589,-0.55111 15.52795,-0.59845 5.46042,-0.0299 10.92104,-0.016 16.38154,-0.0107 5.47425,0.0107 10.9485,0.0107 16.42276,0.0107 4.47005,-0.58946 10.2666,1.14689 14.33276,-0.55153 -11.39665,4.84672 -22.87835,9.57964 -34.18996,14.54036 -0.33658,0.14766 1.06536,0.0417 1.11777,-0.2513 0.21769,-1.21611 -0.42699,-2.82359 -0.64044,-4.01385 -0.66803,-3.93886 -0.82161,-7.912 -0.9352,-11.878 0.38386,-3.76812 -0.71629,-7.38504 -1.58749,-11.05667 -0.87572,-3.93661 -1.04526,-7.93262 -1.16677,-11.91547 -0.0878,-4.15769 -0.0707,-8.31612 -0.0654,-12.47419 0.007,-4.16379 0.0113,-8.32758 0.0137,-12.49137 0.002,-4.1611 0.002,-8.32219 0.002,-12.48328 0,-4.16084 -6e-5,-8.32167 -9e-5,-12.48251 -4e-5,-4.16085 -5e-5,-8.32171 -5e-5,-12.48257 0,-4.16086 0,-8.32173 0,-12.48259 0,-4.16087 0,-8.32173 0,-12.48259 0,-4.16087 0,-8.32173 0,-12.4826 0,-4.16085 0,-8.32171 0,-12.48259 0.31003,-4.13934 -0.18378,-8.18227 -1.08004,-12.25508 -0.98038,-4.18438 -1.33021,-8.42618 -1.53527,-12.66658 -0.15233,-4.17454 -0.13943,-8.35122 -0.13797,-12.52698 0.46591,-3.74382 -0.62449,-7.33392 -1.49172,-10.9816 -0.87828,-3.93148 -1.05025,-7.92275 -1.17334,-11.90086 0.31712,-4.1498 -0.75422,-8.19655 -1.57411,-12.27164 -0.82118,-4.19414 -1.03076,-8.43424 -1.1599,-12.66717 0.3837,-3.7528 -0.70815,-7.35441 -1.57542,-11.01123 -0.87344,-3.93165 -1.04159,-7.92266 -1.1626,-11.9004 -0.0875,-4.1576 -0.0706,-8.31594 -0.0652,-12.4739 0.007,-4.16387 0.0113,-8.32773 0.0137,-12.49159 0.002,-4.16111 0.002,-8.32222 0.002,-12.48331 1e-5,-4.16083 -6e-5,-8.32167 -8e-5,-12.4825 -3e-5,-4.16086 -4e-5,-8.32171 -4e-5,-12.48257 0,-4.16087 0,-8.32173 0,-12.48259 0,-4.16088 0,-8.32174 0,-12.48259 0,-4.16087 0,-8.32174 0,-12.4826 0,-4.16086 0,-8.32173 0,-12.48259 0,-4.16086 0,-8.32173 0,-12.4826 0.31542,-3.67975 1.54627,-7.25688 2.12983,-10.91644 0.82993,-3.49091 2.1237,-6.87759 2.73901,-10.40319 0.22606,-3.61932 1.66099,-7.08363 2.45163,-10.63713 0.73568,-3.88775 0.80661,-7.82272 0.87739,-11.74287 0.12973,-4.13052 -0.16659,-8.26837 0.20612,-12.3916 0.89881,-3.59014 1.73234,-7.16972 2.15087,-10.81317 0.37064,-4.0405 0.37995,-8.0933 0.40066,-12.14156 0.008,-4.16244 -0.003,-8.32489 -0.008,-12.48731 -0.005,-4.16271 -0.005,-8.32542 -0.006,-12.48811 0.19578,-3.65139 -1.17474,-7.19104 -1.87175,-10.77758 -1.32795,-3.36948 -2.4108,-6.74829 -3.00488,-10.23977 -1.18251,-3.43428 -2.21182,-6.86416 -2.76954,-10.39271 -0.52117,-4.0726 -0.54353,-8.16892 -0.57632,-12.25685 -0.015,-4.16671 3.4e-4,-8.33344 0.007,-12.50015 0.006,-4.16248 0.008,-8.32497 0.009,-12.48744 0.29286,-3.82086 -0.0872,-7.52029 -1.0756,-11.25703 -1.05599,-3.83348 -1.35181,-7.74616 -1.54371,-11.64942 0.0505,-3.64069 -1.31145,-7.16225 -2.00519,-10.74324 -0.67869,-4.0136 -0.76358,-8.06509 -0.83452,-12.10563 -0.63298,-3.56103 -1.6583,-7.06101 -2.18105,-10.63869 -0.28836,-3.57472 -1.71359,-7.00516 -2.44222,-10.53535 -0.49883,-3.52738 -1.9664,-6.90062 -2.72125,-10.40024 -0.18768,-3.61527 -1.45444,-7.07759 -2.37336,-10.60345 -0.92767,-3.93289 -1.07912,-7.93457 -1.19473,-11.91908 -0.11491,-3.89046 0.24677,-7.76997 -0.67514,-11.61204 -1.13315,-3.72825 -1.60377,-7.53168 -1.88427,-11.34332 -0.23451,-4.13245 -0.22744,-8.26987 -0.23288,-12.40529 0.002,-4.1653 0.0105,-8.33057 0.0144,-12.49587 -0.0105,-2.86448 0.33729,-6.39791 -3.42715,-7.917 -4.36962,-0.94854 -8.99912,-0.853 -13.50509,-0.87931 -4.71017,-0.90455 -9.47297,-1.47574 -14.31148,-1.76074 -4.73491,-0.33811 -9.26417,-1.4885 -14.01938,-1.92353 -5.14776,-0.37222 -10.32475,-0.38242 -15.49095,-0.40503 -5.46188,-0.0107 -10.92378,0.002 -16.38566,0.007 -5.57319,-0.10226 -10.0111,-0.17598 -15.43003,0.8548 -4.66309,1.08647 -9.69522,0.50747 -14.30127,1.60684 -4.60688,1.1399 -9.44869,1.39639 -14.25245,1.58548 -4.73231,0.31123 -9.27388,1.42725 -14.04439,1.8306 -3.41931,0.47142 -6.9885,0.006 -10.40738,0.35276 -1.5083,0.15261 -2.94043,0.59649 -4.41382,0.88545 -0.7549,0.11881 -1.50979,0.23763 -2.2647,0.35645 0,0 32.43213,-18.71455 32.43213,-18.71455 l 0,0 c 0.75244,-0.12157 1.50487,-0.24315 2.2573,-0.36471 4.95459,-0.64257 10.01571,-0.41054 14.97812,-1.05998 4.72305,-0.62268 9.35654,-1.66094 14.19117,-1.65698 4.73312,-0.35102 9.36114,-1.03588 13.97497,-1.90801 4.80227,-0.37046 9.60242,-0.73666 14.30796,-1.59912 5.24799,-0.5946 10.56566,-0.25604 15.8552,-0.34676 5.4725,-0.005 10.94522,-0.0195 16.41755,0.0205 5.29009,0.0614 10.59937,0.13315 15.84255,0.72615 4.63823,0.60367 9.16629,1.6783 13.89596,1.80771 4.73401,0.4207 9.36988,1.27818 14.11405,1.58242 5.14817,0.1411 10.50932,0.23171 14.98924,2.4115 4.10744,2.75102 5.48426,6.33771 5.21788,10.47229 -0.004,4.16418 -0.0105,8.32835 -0.0162,12.49254 -6.3e-4,4.08796 -0.0156,8.17717 0.15671,12.26355 0.20962,3.67061 0.53994,7.34725 1.64644,10.93621 1.09773,4.0149 1.04041,8.01477 0.96137,12.10833 0.0766,3.81949 0.15213,7.65542 0.91835,11.43877 0.85132,3.5744 2.37303,7.0409 2.43457,10.70455 0.65457,3.52897 2.17291,6.89183 2.73145,10.41731 0.64224,3.59391 2.14258,7.05077 2.5148,10.65927 0.45064,3.67905 1.38964,7.27706 2.3251,10.89886 0.0451,3.91773 0.0833,7.84457 0.63148,11.74444 0.62856,3.69976 2.10564,7.30803 2.17493,11.0423 0.13694,3.7394 0.32084,7.49475 1.26875,11.17645 1.0495,3.93246 1.85123,7.78462 1.40086,11.82444 -6.9e-4,4.16355 -0.002,8.32708 -0.007,12.49062 -0.006,4.16107 -0.02,8.32214 -0.0164,12.48321 0.0164,3.98693 0.0131,7.97966 0.41064,11.9576 0.45737,3.53286 1.37165,6.97498 2.75601,10.3694 0.48476,3.48585 1.45747,6.86314 2.96997,10.18036 0.64058,3.73639 2.14499,7.39429 2.09266,11.17262 3.9e-4,4.16198 8.9e-4,8.32397 0.005,12.48596 0.005,4.16542 0.0138,8.33083 0.0158,12.49626 -0.005,4.11007 9.5e-4,8.22247 -0.24945,12.32911 -0.29241,3.69448 -0.75345,7.38758 -2.02743,10.97375 -1.10645,3.93876 -0.12855,8.06055 -0.46375,12.06406 -0.0368,4.03617 -0.0657,8.08094 -0.59682,12.10093 -0.58158,3.57798 -2.02018,6.99035 -2.52072,10.54582 -0.42224,3.53514 -1.10567,7.04065 -2.75385,10.38382 -0.41283,3.59753 -1.15815,7.14236 -2.34893,10.64194 0,4.16086 0,8.32173 0,12.48259 0,4.16086 0,8.32174 0,12.48259 0,4.16086 0,8.32174 0,12.4826 0,4.16085 0,8.32172 0,12.48259 0,4.16086 0,8.32173 0,12.48259 10e-6,4.16085 10e-6,8.3217 4e-5,12.48256 2e-5,4.16083 8e-5,8.32169 1.1e-4,12.48253 -1e-5,4.16145 6e-5,8.32291 -9.6e-4,12.48436 -0.002,4.16455 -0.005,8.32912 -0.0125,12.49367 -0.006,4.13789 -0.0241,8.27596 0.0335,12.41369 0.0826,3.8284 0.17531,7.67057 0.91379,11.46527 0.84315,3.8094 2.26975,7.54243 1.81823,11.4501 0.0839,4.11274 0.20641,8.23466 0.91638,12.31811 0.79115,4.19728 2.16878,8.34568 1.82295,12.61599 0.084,3.82846 0.1796,7.67076 0.92395,11.46498 0.84946,3.81786 2.28255,7.55992 1.77297,11.47725 -0.005,4.14608 -0.0233,8.29264 0.0781,12.4382 0.14275,4.11292 0.37609,8.23377 1.27697,12.2986 0.93878,4.22938 1.85031,8.39576 1.3971,12.71011 0,4.16085 0,8.32173 0,12.48259 0,4.16086 0,8.32173 0,12.48259 0,4.16086 0,8.32172 -1e-5,12.4826 0,4.16085 0,8.32171 0,12.48259 1e-5,4.16085 1e-5,8.3217 2e-5,12.48256 3e-5,4.16084 1e-4,8.32169 1.2e-4,12.48253 -1e-5,4.16144 7e-5,8.32289 -9.6e-4,12.48435 -0.002,4.16447 -0.005,8.32896 -0.0126,12.49343 -0.006,4.13797 -0.0241,8.2761 0.0334,12.41392 0.0827,3.83357 0.17629,7.68092 0.91688,11.48068 0.84672,3.82426 2.27734,7.57267 1.83385,11.49539 0.0828,3.84632 0.1796,7.70151 0.78852,11.52486 2.95173,16.11784 6.1192,7.75163 -34.82441,22.95027 -4.90623,-0.0972 -9.81435,-0.0395 -14.72174,-0.0566 -5.47474,0 -10.94948,-0.0107 -16.42422,-0.0107 -5.44568,0 -10.89208,-0.016 -16.33695,0.0673 -5.08289,0.10995 -10.18461,0.26562 -15.19101,1.00018 -4.96346,0.74119 -9.87143,1.32509 -14.96171,1.01781 -5.4686,-0.0107 -10.93727,-0.016 -16.40581,0.0107 -5.27054,0.0385 -10.55315,0.0769 -15.7983,0.51446 -4.77678,0.47247 -9.45812,1.47072 -14.2831,1.56572 -5.47491,0 -10.94982,-0.0107 -16.42471,-0.0128 -5.4659,-0.0107 -10.9321,-0.0256 -16.39778,0.0214 -5.14831,0.0716 -10.33261,0.14072 -15.40149,0.90369 -4.36796,0.78746 -8.50218,2.19407 -13.00829,2.5174 -4.80069,0.49608 -9.42443,0.11058 -13.54445,-2.01469 -3.50002,-2.22793 -5.98456,-5.05026 -7.5102,-8.33286 -1.11332,-4.03351 -1.06339,-8.05485 -0.93966,-12.16915 -0.003,-4.16461 -0.006,-8.32934 -0.0153,-12.49406 -0.006,-4.14965 -0.0256,-8.29975 0.065,-12.44909 0.12394,-3.89679 0.28224,-7.81155 1.21837,-11.6545 1.00252,-3.67612 2.05006,-7.22917 1.83358,-11.02908 0.41227,-3.56038 1.10071,-7.08508 2.59961,-10.48806 0.29411,-3.69548 0.75737,-7.38982 2.04451,-10.97474 1.12055,-3.92968 0.17174,-8.04969 0.47712,-12.04618 -0.0232,-3.98706 -0.0343,-7.97938 -0.43,-11.95742 -0.4589,-3.68755 -1.42135,-7.29165 -2.32098,-10.92729 0,-4.16085 -10e-6,-8.3217 -6e-5,-12.48254 -3e-5,-4.1609 -1.4e-4,-8.3218 -2e-5,-12.48268 2.1e-4,-4.16222 4.4e-4,-8.32443 0.004,-12.48663 0.004,-4.16422 0.0105,-8.32842 0.0163,-12.49262 6.5e-4,-4.08739 0.0157,-8.17604 -0.15789,-12.26182 -0.21111,-3.66683 -0.54361,-7.33977 -1.65924,-10.9235 -1.11324,-4.03313 -1.06346,-8.05412 -0.93771,-12.16796 2.2e-4,-4.16221 4.5e-4,-8.32441 0.004,-12.4866 0.004,-4.16419 0.0105,-8.32837 0.0162,-12.49255 6.3e-4,-4.08776 0.0156,-8.17678 -0.15717,-12.26294 -0.21013,-3.66983 -0.54139,-7.34565 -1.64974,-10.93354 -1.10161,-4.02398 -1.04355,-8.03343 -0.94381,-12.13641 -0.0474,-3.91395 -0.09,-7.8371 -0.64636,-11.73259 -0.6406,-3.73638 -2.14512,-7.39429 -2.09258,-11.17262 1e-5,-4.16086 4e-5,-8.32173 8e-5,-12.4826 5e-5,-4.16079 1.8e-4,-8.32157 -3.1e-4,-12.48235 -7.1e-4,-4.16043 -0.002,-8.32086 -0.007,-12.48129 -0.005,-4.16406 -0.018,-8.32814 -0.009,-12.4922 0.0225,-4.20312 0.0435,-8.41037 0.42545,-12.60549 0.45374,-4.15677 1.25602,-8.27045 2.30937,-12.36421 -0.005,-4.14806 -0.024,-8.29657 0.0721,-12.44416 0.12968,-3.89151 0.29969,-7.79986 1.23357,-11.63758 1.00998,-3.76705 1.97214,-7.39607 1.42873,-11.28589 -0.006,-4.15034 -0.0269,-8.30106 0.0625,-12.45099 0.12337,-3.89483 0.27815,-7.80902 1.23461,-11.64768 1.02017,-3.62199 2.14392,-7.12146 2.05841,-10.87018 0.57455,-3.63184 2.03693,-7.15907 2.11128,-10.80475 0.005,-4.11011 -9.5e-4,-8.22252 0.24938,-12.32918 0.29236,-3.69447 0.75323,-7.38758 2.02772,-10.97365 1.10706,-3.93705 0.13062,-8.05733 0.47062,-12.05923 0.0422,-4.03249 0.082,-8.0728 0.60511,-12.08948 0.57057,-3.63261 2.02165,-7.15927 2.11585,-10.80416 0.0346,-4.02924 0.055,-8.0689 0.62522,-12.07954 0.62671,-3.51762 2.12265,-6.79553 3.03711,-10.2341 0.86601,-3.75122 2.63836,-7.31825 2.81601,-11.15438 0.84518,-3.85106 2.39779,-7.55449 3.05691,-11.42515 1.06926,-3.44802 2.41594,-6.77259 2.89775,-10.31851 1.20977,-3.20818 2.94794,-6.23596 3.87952,-9.51389 1.57681,-3.14506 1.37919,-6.71273 3.44373,-9.77976 0.58684,-3.57363 2.03861,-6.97995 2.53246,-10.53201 0.41281,-3.59748 1.15809,-7.14229 2.34882,-10.64184 -5e-5,-4.16108 -1.7e-4,-8.32213 3.4e-4,-12.4832 7.6e-4,-4.16337 0.002,-8.32674 0.007,-12.4901 0.005,-4.15822 0.0183,-8.31644 0.008,-12.47465 -0.0232,-3.98718 -0.0344,-7.97962 -0.43006,-11.95776 -0.45888,-3.68707 -1.42107,-7.2907 -2.32102,-10.92583 2.6e-4,-4.1516 5.4e-4,-8.30319 0.005,-12.45481 0.005,-4.15494 0.0134,-8.30987 0.0206,-12.46482 9.6e-4,-4.73971 -0.002,-9.48051 -0.21492,-14.21809 -0.35438,-6.8551 -0.90116,-13.71211 -2.10073,-20.51567 0,0 35.98512,-14.33059 35.98512,-14.33059 z"
       inkscape:connector-curvature="0" />
    <path
       style="fill:#ccff00;fill-opacity:1;stroke:#00fb00;stroke-width:2.385391;stroke-opacity:1"
       d="m 298.23923,411.88502 c 2.61847,-35.02098 6.02762,-54.70825 13.77989,-79.57651 15.77034,-50.58911 15.94033,-51.96979 13.25934,-107.68801 -1.36197,-28.30578 -2.09116,-51.89146 -1.62041,-52.41263 2.1789,-2.41229 53.67332,-2.15738 74.49,0.36876 l 23.24793,2.82115 0.65642,9.281 c 1.66251,23.5058 6.71864,64.17132 8.91408,71.69396 5.095,17.45797 10.94434,61.93086 10.9899,83.55673 0.026,12.39991 1.87226,29.09831 4.10256,37.10755 2.2303,8.00922 4.05509,24.62668 4.05509,36.92768 l 0,22.3654 -76.85126,0 -76.85125,0 1.82771,-24.44508 z"
       id="path3001"
       inkscape:connector-curvature="0" />
    <path
       style="fill:#ccff00;fill-opacity:1;stroke:#00fb00;stroke-width:2.385391;stroke-opacity:1"
       d="m 387.20784,594.08254 c -23.31631,-0.9925 -55.62411,-1.26715 -71.79511,-0.61033 l -29.40181,1.19424 -0.0287,-28.71769 c -0.0158,-15.79475 1.44711,-46.73944 3.25091,-68.76603 l 3.27965,-40.04831 60.6216,0 c 33.34189,0 68.1868,-0.60147 77.43314,-1.33658 l 16.8115,-1.33659 -4.6e-4,8.09799 c -2.6e-4,4.45389 -1.84642,15.43585 -4.10257,24.40435 -2.88642,11.47384 -4.10211,30.12452 -4.10211,62.93307 0,43.14062 -0.35786,46.6029 -4.78635,46.30856 -2.63248,-0.17497 -23.86333,-1.13018 -47.17964,-2.12268 z"
       id="path3003"
       inkscape:connector-curvature="0" />
    <path
       style="fill:#ccff00;fill-opacity:1;stroke:#00fb00;stroke-width:2.385391;stroke-opacity:1"
       d="m 501.39625,603.29868 -21.19664,-0.70905 0,-59.10239 c 0,-32.72696 1.27688,-64.02235 2.86125,-70.12706 1.57369,-6.06358 3.48502,-13.25759 4.24741,-15.9867 l 1.38617,-4.962 33.35954,1.61329 c 63.81749,3.08627 109.8055,1.56257 137.29151,-4.54881 5.33716,-1.18669 5.34761,-1.11187 0.42989,3.07821 -3.99132,3.40074 -5.8273,10.92662 -8.8224,36.16392 -2.0802,17.52824 -6.41619,42.63575 -9.63552,55.79447 -3.21934,13.15874 -6.44867,32.11666 -7.17628,42.12874 l -1.32293,18.20378 -55.11268,-0.41867 c -30.31196,-0.23026 -64.65116,-0.73774 -76.30932,-1.12773 z"
       id="path3005"
       inkscape:connector-curvature="0" />
    <path
       style="fill:#ccff00;fill-opacity:1;stroke:#00fb00;stroke-width:2.385391;stroke-opacity:1"
       d="m 292.1648,877.07134 c -4.74283,-3.61009 -4.42372,-41.26674 0.56153,-66.2635 3.24441,-16.26789 3.50046,-31.90878 1.44747,-88.41835 -1.37182,-37.75984 -3.21785,-77.86211 -4.10232,-89.11616 l -1.60812,-20.4619 50.05599,1.36986 c 27.53082,0.75342 56.74362,2.23768 64.91736,3.29834 8.17374,1.06066 18.87037,1.92848 23.77028,1.92848 4.89993,0 9.65448,0.91757 10.56568,2.03906 3.83864,4.72445 9.8169,69.44677 11.05331,119.66621 0.73244,29.75017 1.80804,71.08088 2.3902,91.84598 l 1.05847,37.75479 -29.11459,1.3877 c -16.01303,0.76331 -48.80696,2.18905 -72.87541,3.16829 -24.06846,0.97935 -46.22238,2.37069 -49.23093,3.09199 -3.00857,0.72132 -7.00858,0.1404 -8.88892,-1.29079 l 0,0 z"
       id="path3007"
       inkscape:connector-curvature="0" />
    <path
       style="fill:#ccff00;fill-opacity:1;stroke:#00fb00;stroke-width:2.385391;stroke-opacity:1"
       d="m 131.4805,599.84193 c -15.04279,-2.48421 -30.03884,-5.65144 -33.324571,-7.0383 -3.285735,-1.38685 -14.186687,-2.52157 -24.224326,-2.52157 -16.267377,0 -18.047898,-0.39556 -16.387713,-3.64076 1.852914,-3.62192 6.76496,-29.45296 12.744362,-67.01894 1.743338,-10.95263 2.483653,-31.14234 1.668435,-45.5009 l -1.465485,-25.81181 40.067328,1.33498 c 22.03704,0.73424 50.5289,2.1926 63.31528,3.24083 12.78636,1.04822 35.94916,2.57083 51.47288,3.38358 l 28.22493,1.47774 -1.74982,21.01824 c -0.96242,11.56004 -2.89438,32.62259 -4.29324,46.80566 -1.39888,14.18308 -2.5434,36.80821 -2.5434,50.27808 l 0,24.49068 -13.80989,2.25282 c -22.19357,3.62047 -68.92343,2.33132 -99.69477,-2.75033 z"
       id="path3009"
       inkscape:connector-curvature="0"
       inkscape:export-filename="/home/renmai/git/eduras/Eduras/src/de/illonis/eduras/images/gameobjects/healthpotion.png"
       inkscape:export-xdpi="8.210639"
       inkscape:export-ydpi="8.210639" />
  </g>
</svg>
