<?xml version="1.0" encoding="UTF-8" standalone="no"?>
<!-- Created with Inkscape (http://www.inkscape.org/) -->

<svg
   xmlns:osb="http://www.openswatchbook.org/uri/2009/osb"
   xmlns:dc="http://purl.org/dc/elements/1.1/"
   xmlns:cc="http://creativecommons.org/ns#"
   xmlns:rdf="http://www.w3.org/1999/02/22-rdf-syntax-ns#"
   xmlns:svg="http://www.w3.org/2000/svg"
   xmlns="http://www.w3.org/2000/svg"
   xmlns:xlink="http://www.w3.org/1999/xlink"
   xmlns:sodipodi="http://sodipodi.sourceforge.net/DTD/sodipodi-0.dtd"
   xmlns:inkscape="http://www.inkscape.org/namespaces/inkscape"
   sodipodi:docname="icon-assaultrifle.svg"
   inkscape:version="0.48.2 r9819"
   version="1.1"
   id="svg2"
   height="145.14285"
   width="145.14"
   inkscape:export-filename="icon-assaultrifle.png.medium.png"
   inkscape:export-xdpi="45.98"
   inkscape:export-ydpi="45.98">
  <sodipodi:namedview
     id="base"
     pagecolor="#ffffff"
     bordercolor="#666666"
     borderopacity="1.0"
     inkscape:pageopacity="0.0"
     inkscape:pageshadow="2"
     inkscape:zoom="3.7347092"
     inkscape:cx="78.906104"
     inkscape:cy="74.34594"
     inkscape:document-units="px"
     inkscape:current-layer="layer1"
     showgrid="false"
     fit-margin-top="0"
     fit-margin-bottom="0"
     fit-margin-left="0"
     fit-margin-right="0"
     inkscape:window-width="1920"
     inkscape:window-height="1028"
     inkscape:window-x="-8"
     inkscape:window-y="-8"
     inkscape:window-maximized="1" />
  <defs
     id="defs4">
    <linearGradient
       inkscape:collect="always"
       id="linearGradient3896">
      <stop
         style="stop-color:#ffffff;stop-opacity:1;"
         offset="0"
         id="stop3898" />
      <stop
         style="stop-color:#ffffff;stop-opacity:0;"
         offset="1"
         id="stop3900" />
    </linearGradient>
    <linearGradient
       id="linearGradient3812">
      <stop
         style="stop-color:#ffffff;stop-opacity:1;"
         offset="0"
         id="stop3814" />
      <stop
         style="stop-color:#262626;stop-opacity:1;"
         offset="1"
         id="stop3816" />
    </linearGradient>
    <linearGradient
       id="linearGradient5365"
       osb:paint="solid">
      <stop
         style="stop-color:#000000;stop-opacity:1;"
         offset="0"
         id="stop5367" />
    </linearGradient>
    <clipPath
       id="clipPath">
      <path
         transform="translate(29.624569,35.732559)"
         style="color:#000000;fill:#ff0000;fill-opacity:1;fill-rule:nonzero;stroke:#000000;stroke-width:1;marker:none;visibility:visible;display:inline;overflow:visible;enable-background:accumulate"
         d="M 64.8421,55.273887 C 50.005464,47.259182 39.28711,30.18132 38.996326,15.97783 38.702709,1.6360358 49.078676,-7.5314382 64.140511,-3.896903 81.926115,0.3948985 98.893623,20.262464 98.896305,39.49002 98.898953,58.467838 82.303513,64.706489 64.8421,55.273887 c 0,0 0,0 0,0"
         id="path3038"
         inkscape:connector-curvature="0" />
    </clipPath>
    <filter
       y="-0.5"
       x="-0.5"
       width="2"
       height="2"
       id="filter"
       color-interpolation-filters="sRGB">
      <feGaussianBlur
         id="feGaussianBlur3958"
         stdDeviation="5.0" />
    </filter>
    <clipPath
       id="clipPathu">
      <path
         transform="matrix(0.46762589,0,0,0.46762589,56.053141,58.909403)"
         style="color:#000000;fill:#ff0000;fill-opacity:1;fill-rule:nonzero;stroke:#000000;stroke-width:1.06923079;stroke-miterlimit:4;marker:none;visibility:visible;display:inline;overflow:visible;enable-background:accumulate"
         d="M 81.752366,35.452234 C 66.232327,28.28177 54.265402,10.524474 54.018237,-4.7406961 53.769868,-20.080337 65.415346,-28.752558 81.050833,-23.713862 c 16.889907,5.442945 31.707987,24.50470535 31.828477,42.07756 0.11982,17.474833 -14.37389,24.828669 -31.126944,17.088536 0,0 0,0 0,0"
         id="path3038-6"
         inkscape:connector-curvature="0" />
    </clipPath>
    <filter
       id="filterg"
       height="2"
       width="2"
       x="-0.5"
       y="-0.5"
       color-interpolation-filters="sRGB">
      <feGaussianBlur
         stdDeviation="5.0"
         id="feGaussianBlur4010" />
    </filter>
    <clipPath
       id="clipPathz">
      <path
         transform="matrix(0.7266187,0,0,0.7266187,43.195998,47.634182)"
         style="color:#000000;fill:#ffffff;fill-opacity:1;fill-rule:nonzero;stroke:#000000;stroke-width:0.68811882;stroke-miterlimit:4;marker:none;visibility:visible;display:inline;overflow:visible;enable-background:accumulate"
         d="M 70.430924,48.751661 C 55.251183,41.159198 43.919436,23.73801 43.649113,9.0084662 43.37681,-5.8289857 54.378156,-14.760788 69.729369,-10.416293 c 17.313907,4.8999504 33.119111,24.348181 33.187741,42.688883 0.068,18.175163 -15.395662,25.027252 -32.486186,16.479071 0,0 0,0 0,0"
         id="path3038-1"
         inkscape:connector-curvature="0" />
    </clipPath>
    <filter
       y="-0.5"
       x="-0.5"
       width="2"
       height="2"
       id="filterD"
       color-interpolation-filters="sRGB">
      <feGaussianBlur
         id="feGaussianBlur4078"
         stdDeviation="5.0" />
    </filter>
    <clipPath
       id="clipPaths">
      <path
         transform="matrix(0.17985611,0,0,0.17985611,70.338854,71.437426)"
         style="color:#000000;fill:#000000;fill-opacity:1;fill-rule:nonzero;stroke:none;stroke-width:1;marker:none;visibility:visible;display:inline;overflow:visible;enable-background:accumulate"
         d="m 132.57002,-24.504619 c -15.91685,-6.674599 -28.65967,-24.818009 -28.87594,-40.725945 -0.21669,-15.938983 12.21084,-24.275188 28.17442,-18.439031 16.44289,6.011388 30.27594,24.656491 30.4442,41.448257 0.16792,16.757263 -13.34968,24.590988 -29.74268,17.716719 0,0 0,0 0,0"
         id="path3038-9"
         inkscape:connector-curvature="0" />
    </clipPath>
    <filter
       id="filters"
       height="2"
       width="2"
       x="-0.5"
       y="-0.5"
       color-interpolation-filters="sRGB">
      <feGaussianBlur
         stdDeviation="5.0"
         id="feGaussianBlur4162" />
    </filter>
    <filter
       inkscape:label="Drop Shadow"
       id="filter4589"
       color-interpolation-filters="sRGB">
      <feFlood
         result="flood"
         flood-color="rgb(255,255,255)"
         flood-opacity="0.45033112582781459"
         id="feFlood4591" />
      <feComposite
         result="composite1"
         operator="in"
         in="flood"
         in2="SourceGraphic"
         id="feComposite4593" />
      <feGaussianBlur
         result="blur"
         stdDeviation="2"
         id="feGaussianBlur4595" />
      <feOffset
         result="offset"
         dy="0"
         dx="0"
         id="feOffset4597" />
      <feComposite
         result="composite2"
         operator="over"
         in="SourceGraphic"
         in2="offset"
         id="feComposite4599" />
    </filter>
    <radialGradient
       inkscape:collect="always"
       xlink:href="#linearGradient3812-7"
       id="radialGradient3818-8"
       cx="60.35714"
       cy="76.481316"
       fx="60.35714"
       fy="76.481316"
       r="4.1071429"
       gradientUnits="userSpaceOnUse" />
    <linearGradient
       id="linearGradient3812-7">
      <stop
         style="stop-color:#ffffff;stop-opacity:1;"
         offset="0"
         id="stop3814-7" />
      <stop
         style="stop-color:#262626;stop-opacity:1;"
         offset="1"
         id="stop3816-7" />
    </linearGradient>
    <radialGradient
       inkscape:collect="always"
       xlink:href="#linearGradient3812"
       id="radialGradient3922"
       gradientUnits="userSpaceOnUse"
       cx="60.267853"
       cy="76.124168"
       fx="60.267853"
       fy="76.124168"
       r="4.1071429" />
    <radialGradient
       inkscape:collect="always"
       xlink:href="#linearGradient3896"
       id="radialGradient3924"
       gradientUnits="userSpaceOnUse"
       gradientTransform="matrix(0.71698271,0.19211491,-0.21810629,0.8139839,34.241666,2.5748871)"
       cx="61.42857"
       cy="77.284882"
       fx="61.42857"
       fy="77.284882"
       r="4.1071429" />
    <radialGradient
       inkscape:collect="always"
       xlink:href="#linearGradient3812"
       id="radialGradient3932"
       gradientUnits="userSpaceOnUse"
       cx="60.267853"
       cy="76.124168"
       fx="60.267853"
       fy="76.124168"
       r="4.1071429" />
    <radialGradient
       inkscape:collect="always"
       xlink:href="#linearGradient3896"
       id="radialGradient3934"
       gradientUnits="userSpaceOnUse"
       gradientTransform="matrix(0.71698271,0.19211491,-0.21810629,0.8139839,34.241666,2.5748871)"
       cx="61.42857"
       cy="77.284882"
       fx="61.42857"
       fy="77.284882"
       r="4.1071429" />
    <radialGradient
       inkscape:collect="always"
       xlink:href="#linearGradient3812"
       id="radialGradient3942"
       gradientUnits="userSpaceOnUse"
       cx="60.267853"
       cy="76.124168"
       fx="60.267853"
       fy="76.124168"
       r="4.1071429" />
    <radialGradient
       inkscape:collect="always"
       xlink:href="#linearGradient3896"
       id="radialGradient3944"
       gradientUnits="userSpaceOnUse"
       gradientTransform="matrix(0.71698271,0.19211491,-0.21810629,0.8139839,34.241666,2.5748871)"
       cx="61.42857"
       cy="77.284882"
       fx="61.42857"
       fy="77.284882"
       r="4.1071429" />
    <radialGradient
       inkscape:collect="always"
       xlink:href="#linearGradient3812"
       id="radialGradient3952"
       gradientUnits="userSpaceOnUse"
       cx="60.267853"
       cy="76.124168"
       fx="60.267853"
       fy="76.124168"
       r="4.1071429" />
    <radialGradient
       inkscape:collect="always"
       xlink:href="#linearGradient3896"
       id="radialGradient3954"
       gradientUnits="userSpaceOnUse"
       gradientTransform="matrix(0.71698271,0.19211491,-0.21810629,0.8139839,34.241666,2.5748871)"
       cx="61.42857"
       cy="77.284882"
       fx="61.42857"
       fy="77.284882"
       r="4.1071429" />
    <radialGradient
       inkscape:collect="always"
       xlink:href="#linearGradient3812"
       id="radialGradient3962"
       gradientUnits="userSpaceOnUse"
       cx="60.267853"
       cy="76.124168"
       fx="60.267853"
       fy="76.124168"
       r="4.1071429" />
    <radialGradient
       inkscape:collect="always"
       xlink:href="#linearGradient3896"
       id="radialGradient3964"
       gradientUnits="userSpaceOnUse"
       gradientTransform="matrix(0.71698271,0.19211491,-0.21810629,0.8139839,34.241666,2.5748871)"
       cx="61.42857"
       cy="77.284882"
       fx="61.42857"
       fy="77.284882"
       r="4.1071429" />
    <filter
       id="filter3980"
       inkscape:label="filter3980"
       color-interpolation-filters="sRGB">
      <feFlood
         id="feFlood3982"
         flood-opacity="0.7"
         flood-color="rgb(0,0,0)"
         result="flood" />
      <feComposite
         id="feComposite3984"
         in2="SourceGraphic"
         in="flood"
         operator="in"
         result="composite1" />
      <feGaussianBlur
         id="feGaussianBlur3986"
         stdDeviation="2"
         result="blur" />
      <feOffset
         id="feOffset3988"
         dx="0"
         dy="0"
         result="offset" />
      <feComposite
         id="feComposite3990"
         in2="offset"
         in="SourceGraphic"
         operator="over"
         result="composite2" />
    </filter>
    <radialGradient
       inkscape:collect="always"
       xlink:href="#linearGradient3812"
       id="radialGradient4059"
       gradientUnits="userSpaceOnUse"
       cx="60.267853"
       cy="76.124168"
       fx="60.267853"
       fy="76.124168"
       r="4.1071429" />
    <radialGradient
       inkscape:collect="always"
       xlink:href="#linearGradient3896"
       id="radialGradient4061"
       gradientUnits="userSpaceOnUse"
       gradientTransform="matrix(0.71698271,0.19211491,-0.21810629,0.8139839,34.241666,2.5748871)"
       cx="61.42857"
       cy="77.284882"
       fx="61.42857"
       fy="77.284882"
       r="4.1071429" />
  </defs>
  <metadata
     id="metadata7">
    <rdf:RDF>
      <cc:Work
         rdf:about="">
        <dc:format>image/svg+xml</dc:format>
        <dc:type
           rdf:resource="http://purl.org/dc/dcmitype/StillImage" />
        <dc:title />
      </cc:Work>
    </rdf:RDF>
  </metadata>
  <g
     inkscape:label="Border"
     inkscape:groupmode="layer"
     id="layer1"
     transform="translate(-171.68529,-318.26065)"
     style="display:inline">
    <rect
       style="fill:#004455;stroke:#000000;stroke-width:8;stroke-linecap:round;stroke-linejoin:bevel;stroke-miterlimit:4;stroke-dasharray:none"
       id="rect2985"
       width="137.14285"
       height="137.14285"
       x="175.80244"
       y="322.26065" />
  </g>
  <g
     inkscape:groupmode="layer"
     id="layer2"
     inkscape:label="Art"
     transform="translate(1.9566846,-6.6960306)">
    <g
       transform="matrix(0.82389601,-0.49686442,0.34820857,0.96933571,-13.584678,75.786068)"
       id="g4321">
      <g
         id="g3858"
         transform="matrix(1.1637936,0.29531637,-0.35776126,0.96066105,27.056499,-37.015818)">
        <path
           id="path3967"
           d="M 64.8421,55.273887 C 50.005464,47.259182 39.28711,30.18132 38.996326,15.97783 38.702709,1.6360358 49.078676,-7.5314382 64.140511,-3.896903 81.926115,0.3948985 98.893623,20.262464 98.896305,39.49002 98.898953,58.467838 82.303513,64.706489 64.8421,55.273887 c 0,0 0,0 0,0"
           style="color:#000000;fill:#ff0000;fill-opacity:1;fill-rule:nonzero;stroke:#000000;stroke-width:0.91709703;marker:none;visibility:visible;display:inline;overflow:visible;enable-background:accumulate"
           transform="translate(29.624569,35.732559)"
           inkscape:connector-curvature="0" />
        <path
           id="path4088"
           d="M 70.430924,48.751661 C 55.251183,41.159198 43.919436,23.73801 43.649113,9.0084662 43.37681,-5.8289857 54.378156,-14.760788 69.729369,-10.416293 c 17.313907,4.8999504 33.119111,24.348181 33.187741,42.688883 0.068,18.175163 -15.395662,25.027252 -32.486186,16.479071 0,0 0,0 0,0"
           style="color:#000000;fill:#ffffff;fill-opacity:1;fill-rule:nonzero;stroke:#000000;stroke-width:0.63107175;stroke-miterlimit:4;marker:none;visibility:visible;display:inline;overflow:visible;enable-background:accumulate"
           transform="matrix(0.7266187,0,0,0.7266187,43.195998,47.634182)"
           inkscape:connector-curvature="0" />
        <path
           id="path4021"
           d="M 81.752366,35.452234 C 66.232327,28.28177 54.265402,10.524474 54.018237,-4.7406961 53.769868,-20.080337 65.415346,-28.752558 81.050833,-23.713862 c 16.889907,5.442945 31.707987,24.50470535 31.828477,42.07756 0.11982,17.474833 -14.37389,24.828669 -31.126944,17.088536 0,0 0,0 0,0"
           style="color:#000000;fill:#ff0000;fill-opacity:1;fill-rule:nonzero;stroke:#000000;stroke-width:0.98058838;stroke-miterlimit:4;marker:none;visibility:visible;display:inline;overflow:visible;enable-background:accumulate"
           transform="matrix(0.46762589,0,0,0.46762589,56.053141,58.909403)"
           inkscape:connector-curvature="0" />
        <path
           id="path4174"
           d="m 132.57002,-24.504619 c -15.91685,-6.674599 -28.65967,-24.818009 -28.87594,-40.725945 -0.21669,-15.938983 12.21084,-24.275188 28.17442,-18.439031 16.44289,6.011388 30.27594,24.656491 30.4442,41.448257 0.16792,16.757263 -13.34968,24.590988 -29.74268,17.716719 0,0 0,0 0,0"
           style="color:#000000;fill:#000000;fill-opacity:1;fill-rule:nonzero;stroke:none;stroke-width:1;marker:none;visibility:visible;display:inline;overflow:visible;enable-background:accumulate"
           transform="matrix(0.17985611,0,0,0.17985611,70.338854,71.437426)"
           inkscape:connector-curvature="0" />
        <g
           clip-path="url(#clipPath)"
           id="g3972">
          <g
             id="g3974">
            <path
               id="path3976"
               d="M 38.996326,15.97783 C 38.702709,1.6360358 49.078676,-7.5314382 64.140511,-3.896903 m 0,0 C 81.926115,0.3948985 98.893623,20.262464 98.896305,39.49002 M 64.8421,55.273887 c 0,0 0,0 0,0"
               style="fill:none;stroke:#ffffff;stroke-width:9.17096996;stroke-opacity:1;filter:url(#filter)"
               transform="translate(29.624569,35.732559)"
               inkscape:connector-curvature="0" />
            <path
               id="path3978"
               d="M 64.8421,55.273887 C 50.005464,47.259182 39.28711,30.18132 38.996326,15.97783 M 98.896305,39.49002 C 98.898953,58.467838 82.303513,64.706489 64.8421,55.273887"
               style="fill:none;stroke:#000000;stroke-width:9.17096996;stroke-opacity:1;filter:url(#filter)"
               transform="translate(29.624569,35.732559)"
               inkscape:connector-curvature="0" />
          </g>
        </g>
        <g
           id="g4028"
           clip-path="url(#clipPathu)">
          <g
             id="g4030">
            <path
               id="path4032"
               d="M 54.018237,-4.7406961 C 53.769868,-20.080337 65.415346,-28.752558 81.050833,-23.713862 m 0,0 c 16.889907,5.442945 31.707987,24.50470535 31.828477,42.07756 M 81.752366,35.452234 c 0,0 0,0 0,0"
               style="fill:none;stroke:#ffffff;stroke-width:9.17096996;stroke-opacity:1;filter:url(#filterg)"
               transform="matrix(0.46762589,0,0,0.46762589,56.053141,58.909403)"
               inkscape:connector-curvature="0" />
            <path
               id="path4034"
               d="M 81.752366,35.452234 C 66.232327,28.28177 54.265402,10.524474 54.018237,-4.7406961 M 112.87931,18.363698 c 0.11982,17.474833 -14.37389,24.828669 -31.126944,17.088536"
               style="fill:none;stroke:#000000;stroke-width:9.17096996;stroke-opacity:1;filter:url(#filterg)"
               transform="matrix(0.46762589,0,0,0.46762589,56.053141,58.909403)"
               inkscape:connector-curvature="0" />
          </g>
        </g>
        <g
           clip-path="url(#clipPathz)"
           id="g4100">
          <g
             id="g4102">
            <path
               id="path4104"
               d="M 43.649113,9.0084662 C 43.37681,-5.8289857 54.378156,-14.760788 69.729369,-10.416293 m 0,0 C 87.043276,-5.5163426 102.84848,13.931888 102.91711,32.27259 M 70.430924,48.751661 c 0,0 0,0 0,0"
               style="fill:none;stroke:#ffffff;stroke-width:9.17096996;stroke-opacity:1;filter:url(#filterD)"
               transform="matrix(0.7266187,0,0,0.7266187,43.195998,47.634182)"
               inkscape:connector-curvature="0" />
            <path
               id="path4106"
               d="M 70.430924,48.751661 C 55.251183,41.159198 43.919436,23.73801 43.649113,9.0084662 M 102.91711,32.27259 c 0.068,18.175163 -15.395662,25.027252 -32.486186,16.479071"
               style="fill:none;stroke:#000000;stroke-width:9.17096996;stroke-opacity:1;filter:url(#filterD)"
               transform="matrix(0.7266187,0,0,0.7266187,43.195998,47.634182)"
               inkscape:connector-curvature="0" />
          </g>
        </g>
        <g
           id="g4188"
           clip-path="url(#clipPaths)">
          <g
             id="g4190">
            <path
               id="path4192"
               d="m 103.69408,-65.230564 c -0.21669,-15.938983 12.21084,-24.275188 28.17442,-18.439031 m 0,0 c 16.44289,6.011388 30.27594,24.656491 30.4442,41.448257 m -29.74268,17.716719 c 0,0 0,0 0,0"
               style="fill:none;stroke:#ffffff;stroke-width:9.17096996;stroke-opacity:1;filter:url(#filters)"
               transform="matrix(0.17985611,0,0,0.17985611,70.338854,71.437426)"
               inkscape:connector-curvature="0" />
            <path
               id="path4194"
               d="m 132.57002,-24.504619 c -15.91685,-6.674599 -28.65967,-24.818009 -28.87594,-40.725945 m 58.61862,23.009226 c 0.16792,16.757263 -13.34968,24.590988 -29.74268,17.716719"
               style="fill:none;stroke:#000000;stroke-width:9.17096996;stroke-opacity:1;filter:url(#filters)"
               transform="matrix(0.17985611,0,0,0.17985611,70.338854,71.437426)"
               inkscape:connector-curvature="0" />
          </g>
        </g>
      </g>
    </g>
    <g
       transform="matrix(2.6177714,0,0,2.6177714,-138.38463,-98.91995)"
       id="g3946"
       style="filter:url(#filter4589)">
      <path
         d="m 65.535713,77.284882 c 0,2.268312 -1.838831,4.107143 -4.107143,4.107143 -2.268313,0 -4.107143,-1.838831 -4.107143,-4.107143 0,-2.268313 1.83883,-4.107143 4.107143,-4.107143 2.268312,0 4.107143,1.83883 4.107143,4.107143 z"
         sodipodi:ry="4.1071429"
         sodipodi:rx="4.1071429"
         sodipodi:cy="77.284882"
         sodipodi:cx="61.42857"
         id="path3948"
         style="color:#000000;fill:url(#radialGradient3952);fill-opacity:1;fill-rule:nonzero;stroke:#1a1a1a;stroke-width:0.03820042;stroke-miterlimit:4;stroke-opacity:1;stroke-dasharray:none;marker:none;visibility:visible;display:inline;overflow:visible;enable-background:accumulate"
         sodipodi:type="arc"
         transform="matrix(2,0,0,2,-61.428569,-77.28488)" />
      <path
         d="m 65.535713,77.284882 c 0,2.268312 -1.838831,4.107143 -4.107143,4.107143 -2.268313,0 -4.107143,-1.838831 -4.107143,-4.107143 0,-2.268313 1.83883,-4.107143 4.107143,-4.107143 2.268312,0 4.107143,1.83883 4.107143,4.107143 z"
         sodipodi:ry="4.1071429"
         sodipodi:rx="4.1071429"
         sodipodi:cy="77.284882"
         sodipodi:cx="61.42857"
         id="path3950"
         style="opacity:0.75;color:#000000;fill:url(#radialGradient3954);fill-opacity:1;fill-rule:nonzero;stroke:none;stroke-width:5;marker:none;visibility:visible;display:inline;overflow:visible;enable-background:accumulate"
         sodipodi:type="arc"
         transform="matrix(0.65217392,0,0,0.65217392,17.973601,22.953125)" />
    </g>
    <rect
       style="fill:none;stroke:#000000;stroke-width:8;stroke-linecap:round;stroke-linejoin:bevel;stroke-miterlimit:4;stroke-dasharray:none;display:inline"
       id="rect2985-8"
       width="137.14285"
       height="137.14285"
       x="2.1604805"
       y="10.696031" />
    <g
       id="g3936"
       transform="matrix(1.5006275,0,0,1.5006275,-36.132621,-28.112075)"
       style="filter:url(#filter4589)">
      <path
         transform="matrix(2,0,0,2,-61.428569,-77.28488)"
         sodipodi:type="arc"
         style="color:#000000;fill:url(#radialGradient4059);fill-opacity:1;fill-rule:nonzero;stroke:#1a1a1a;stroke-width:0.06663879;stroke-miterlimit:4;stroke-opacity:1;stroke-dasharray:none;marker:none;visibility:visible;display:inline;overflow:visible;enable-background:accumulate"
         id="path3938"
         sodipodi:cx="61.42857"
         sodipodi:cy="77.284882"
         sodipodi:rx="4.1071429"
         sodipodi:ry="4.1071429"
         d="m 65.535713,77.284882 c 0,2.268312 -1.838831,4.107143 -4.107143,4.107143 -2.268313,0 -4.107143,-1.838831 -4.107143,-4.107143 0,-2.268313 1.83883,-4.107143 4.107143,-4.107143 2.268312,0 4.107143,1.83883 4.107143,4.107143 z" />
      <path
         transform="matrix(0.65217392,0,0,0.65217392,17.973601,22.953125)"
         sodipodi:type="arc"
         style="opacity:0.75;color:#000000;fill:url(#radialGradient4061);fill-opacity:1;fill-rule:nonzero;stroke:none;stroke-width:5;marker:none;visibility:visible;display:inline;overflow:visible;enable-background:accumulate"
         id="path3940"
         sodipodi:cx="61.42857"
         sodipodi:cy="77.284882"
         sodipodi:rx="4.1071429"
         sodipodi:ry="4.1071429"
         d="m 65.535713,77.284882 c 0,2.268312 -1.838831,4.107143 -4.107143,4.107143 -2.268313,0 -4.107143,-1.838831 -4.107143,-4.107143 0,-2.268313 1.83883,-4.107143 4.107143,-4.107143 2.268312,0 4.107143,1.83883 4.107143,4.107143 z" />
    </g>
    <g
       transform="matrix(0.84994482,0,0,0.84994482,26.707721,10.974445)"
       id="g3926"
       style="filter:url(#filter4589)">
      <path
         d="m 65.535713,77.284882 c 0,2.268312 -1.838831,4.107143 -4.107143,4.107143 -2.268313,0 -4.107143,-1.838831 -4.107143,-4.107143 0,-2.268313 1.83883,-4.107143 4.107143,-4.107143 2.268312,0 4.107143,1.83883 4.107143,4.107143 z"
         sodipodi:ry="4.1071429"
         sodipodi:rx="4.1071429"
         sodipodi:cy="77.284882"
         sodipodi:cx="61.42857"
         id="path3928"
         style="color:#000000;fill:url(#radialGradient3932);fill-opacity:1;fill-rule:nonzero;stroke:#1a1a1a;stroke-width:0.11765469;stroke-miterlimit:4;stroke-opacity:1;stroke-dasharray:none;marker:none;visibility:visible;display:inline;overflow:visible;enable-background:accumulate"
         sodipodi:type="arc"
         transform="matrix(2,0,0,2,-61.428569,-77.28488)" />
      <path
         d="m 65.535713,77.284882 c 0,2.268312 -1.838831,4.107143 -4.107143,4.107143 -2.268313,0 -4.107143,-1.838831 -4.107143,-4.107143 0,-2.268313 1.83883,-4.107143 4.107143,-4.107143 2.268312,0 4.107143,1.83883 4.107143,4.107143 z"
         sodipodi:ry="4.1071429"
         sodipodi:rx="4.1071429"
         sodipodi:cy="77.284882"
         sodipodi:cx="61.42857"
         id="path3930"
         style="opacity:0.75;color:#000000;fill:url(#radialGradient3934);fill-opacity:1;fill-rule:nonzero;stroke:none;stroke-width:5;marker:none;visibility:visible;display:inline;overflow:visible;enable-background:accumulate"
         sodipodi:type="arc"
         transform="matrix(0.65217392,0,0,0.65217392,17.973601,22.953125)" />
    </g>
    <g
       id="g3956"
       transform="matrix(0.48083847,0,0,0.48083847,63.026793,33.490636)"
       style="filter:url(#filter4589)">
      <path
         transform="matrix(2,0,0,2,-61.428569,-77.28488)"
         sodipodi:type="arc"
         style="color:#000000;fill:url(#radialGradient3962);fill-opacity:1;fill-rule:nonzero;stroke:#1a1a1a;stroke-width:0.20797004;stroke-miterlimit:4;stroke-opacity:1;stroke-dasharray:none;marker:none;visibility:visible;display:inline;overflow:visible;enable-background:accumulate"
         id="path3958"
         sodipodi:cx="61.42857"
         sodipodi:cy="77.284882"
         sodipodi:rx="4.1071429"
         sodipodi:ry="4.1071429"
         d="m 65.535713,77.284882 c 0,2.268312 -1.838831,4.107143 -4.107143,4.107143 -2.268313,0 -4.107143,-1.838831 -4.107143,-4.107143 0,-2.268313 1.83883,-4.107143 4.107143,-4.107143 2.268312,0 4.107143,1.83883 4.107143,4.107143 z" />
      <path
         transform="matrix(0.65217392,0,0,0.65217392,17.973601,22.953125)"
         sodipodi:type="arc"
         style="opacity:0.75;color:#000000;fill:url(#radialGradient3964);fill-opacity:1;fill-rule:nonzero;stroke:none;stroke-width:5;marker:none;visibility:visible;display:inline;overflow:visible;enable-background:accumulate"
         id="path3960"
         sodipodi:cx="61.42857"
         sodipodi:cy="77.284882"
         sodipodi:rx="4.1071429"
         sodipodi:ry="4.1071429"
         d="m 65.535713,77.284882 c 0,2.268312 -1.838831,4.107143 -4.107143,4.107143 -2.268313,0 -4.107143,-1.838831 -4.107143,-4.107143 0,-2.268313 1.83883,-4.107143 4.107143,-4.107143 2.268312,0 4.107143,1.83883 4.107143,4.107143 z" />
    </g>
  </g>
  <g
     inkscape:groupmode="layer"
     id="layer3"
     inkscape:label="direction"
     style="display:none"
     transform="translate(1.9566846,-6.6960306)">
    <path
       style="fill:none;stroke:#000000;stroke-width:1px;stroke-linecap:butt;stroke-linejoin:miter;stroke-opacity:1"
       d="M 16.543328,85.442968 115.60714,64.10631 18.219182,139.51639"
       id="path3040"
       inkscape:connector-curvature="0"
       sodipodi:nodetypes="ccc" />
  </g>
</svg>
