<?xml version="1.0" encoding="UTF-8" standalone="no"?>
<!-- Created with Inkscape (http://www.inkscape.org/) -->

<svg
   xmlns:dc="http://purl.org/dc/elements/1.1/"
   xmlns:cc="http://creativecommons.org/ns#"
   xmlns:rdf="http://www.w3.org/1999/02/22-rdf-syntax-ns#"
   xmlns:svg="http://www.w3.org/2000/svg"
   xmlns="http://www.w3.org/2000/svg"
   xmlns:sodipodi="http://sodipodi.sourceforge.net/DTD/sodipodi-0.dtd"
   xmlns:inkscape="http://www.inkscape.org/namespaces/inkscape"
   width="744.09448819"
   height="1052.3622047"
   id="svg2"
   version="1.1"
   inkscape:version="0.48.4 r9939"
   sodipodi:docname="invisibilitypowerup.svg"
   inkscape:export-filename="/home/renmai/git/eduras/Eduras/src/de/illonis/eduras/images/gameobjects/healthpotion.png"
   inkscape:export-xdpi="2.4200001"
   inkscape:export-ydpi="2.4200001">
  <defs
     id="defs4" />
  <sodipodi:namedview
     id="base"
     pagecolor="#ffffff"
     bordercolor="#666666"
     borderopacity="1.0"
     inkscape:pageopacity="0"
     inkscape:pageshadow="2"
     inkscape:zoom="0.35"
     inkscape:cx="386.42858"
     inkscape:cy="742.85714"
     inkscape:document-units="px"
     inkscape:current-layer="layer1"
     showgrid="false"
     inkscape:window-width="1920"
     inkscape:window-height="1023"
     inkscape:window-x="1280"
     inkscape:window-y="22"
     inkscape:window-maximized="1" />
  <metadata
     id="metadata7">
    <rdf:RDF>
      <cc:Work
         rdf:about="">
        <dc:format>image/svg+xml</dc:format>
        <dc:type
           rdf:resource="http://purl.org/dc/dcmitype/StillImage" />
        <dc:title></dc:title>
      </cc:Work>
    </rdf:RDF>
  </metadata>
  <g
     inkscape:label="Layer 1"
     inkscape:groupmode="layer"
     id="layer1">
    <path
       sodipodi:type="arc"
       style="fill:#668000;fill-opacity:1;stroke:#00fb00;stroke-opacity:1"
       id="path2987"
       sodipodi:cx="392.85715"
       sodipodi:cy="549.50507"
       sodipodi:rx="375.71429"
       sodipodi:ry="500"
       d="m 768.57144,549.50507 a 375.71429,500 0 1 1 -751.428587,0 375.71429,500 0 1 1 751.428587,0 z"
       transform="matrix(0.92451237,0,0,0.75103733,-4.5747308,103.72793)"
       inkscape:export-filename="/home/renmai/git/eduras/Eduras/src/de/illonis/eduras/images/gameobjects/invisibilitypowerup.png"
       inkscape:export-xdpi="2.4200001"
       inkscape:export-ydpi="2.4200001" />
    <path
       style="fill:#666666;fill-opacity:1;stroke:#00fb00;stroke-width:2.85714293;stroke-opacity:1"
       d="M 295.84826,883.46056 C 155.25927,853.95304 46.54921,736.9343 19.376461,585.85807 12.907284,549.89044 12.943282,482.42984 19.450746,446.6479 33.710508,368.23917 69.864416,298.16802 124.14286,243.74045 176.11439,191.62613 233.477,160.99479 303.87418,147.76486 c 36.8894,-6.93272 98.16777,-4.30074 135.98297,5.84065 57.54788,15.43334 108.41051,45.33569 153.0586,89.98379 129.70094,129.70092 147.83443,337.58474 43.13105,494.45777 -30.12151,45.12989 -82.84937,92.26517 -129.87108,116.09635 -25.54792,12.94797 -65.41754,26.14434 -94.39809,31.24462 -32.92214,5.79395 -83.11663,4.9594 -115.92937,-1.92748 l 0,0 z"
       id="path3085"
       inkscape:connector-curvature="0"
       inkscape:export-filename="/home/renmai/git/eduras/Eduras/src/de/illonis/eduras/images/gameobjects/invisibilitypowerup.png"
       inkscape:export-xdpi="2.4200001"
       inkscape:export-ydpi="2.4200001" />
    <path
       style="fill:#ffffff;fill-opacity:1;stroke:#00fb00;stroke-opacity:1"
       id="path3089"
       d="m 378.90464,265.80566 c -0.14369,9.11149 -0.51781,18.23239 0.65178,27.28755 1.01022,5.90863 1.65665,11.85723 1.99017,17.8395 0.86612,4.82613 1.94405,9.58505 2.50277,14.4656 0.52575,5.57854 0.55732,11.18712 0.59499,16.78544 0.45937,5.36044 -0.53465,10.5352 -1.53456,15.75848 -1.46764,5.24825 -2.60008,10.55411 -3.70955,15.88639 -1.57316,4.73669 -2.48373,9.58774 -2.95857,14.54417 -0.40615,5.54779 -0.39599,11.11488 -0.40883,16.67422 -0.48231,5.14759 0.67882,10.08006 1.59445,15.09239 0.92634,5.40129 1.10729,10.88625 1.23674,16.35278 0.0938,5.71011 0.0759,11.42131 0.0703,17.13197 -0.008,5.71838 -0.012,11.43677 -0.0145,17.15515 -0.002,5.71461 -0.002,11.42921 -0.002,17.14382 -0.0454,5.58152 0.30247,11.16126 -0.60253,16.68762 -1.16007,4.93799 -1.70684,9.96378 -2.01335,15.01655 0.0628,5.10794 -1.37674,10.02793 -2.17956,15.03041 -0.74445,5.34706 -0.82847,10.75402 -0.90543,16.14297 -0.0512,5.70255 -0.0335,11.40545 -0.0266,17.10815 0.008,5.71859 0.0106,11.43719 0.0123,17.15579 0.22668,5.47821 -0.005,10.84322 -1.0775,16.21652 -1.11673,5.05075 -1.44026,10.2138 -1.64733,15.36679 -0.16698,5.65485 -0.15156,11.31303 -0.15043,16.96975 0.006,5.71961 0.0124,11.43922 0.0159,17.15883 0.003,5.71551 0.003,11.43103 0.003,17.14654 9e-5,5.71428 0,11.42856 -4e-5,17.14284 0.31162,5.2026 -1.11276,10.23557 -1.91884,15.3253 -0.75583,5.21896 -0.56063,10.49434 -1.51946,15.6831 -1.22816,4.90996 -1.74924,9.92854 -2.04832,14.96724 0.0697,5.11175 -1.36611,10.0369 -2.16733,15.04332 -0.74293,5.34773 -0.82715,10.75508 -0.90411,16.14454 -0.0512,5.70252 -0.0336,11.40537 -0.0267,17.10804 0,0 -37.83326,19.28288 -37.83326,19.28288 l 0,0 c -0.007,-5.71723 -0.0231,-11.43452 -7.8e-4,-17.15173 0.0416,-5.54095 0.0786,-11.09291 0.62486,-16.61221 0.59701,-4.96251 2.10176,-9.74927 2.36154,-14.71353 0.20252,-5.21987 0.48493,-10.46617 1.70342,-15.56672 1.25638,-5.09445 1.31868,-10.1799 1.67066,-15.41251 0.60448,-4.98207 2.1426,-9.81789 2.22226,-14.8193 4e-5,-5.71425 1.1e-4,-11.42849 1.1e-4,-17.14273 -7e-5,-5.7149 -8e-5,-11.42981 -0.002,-17.14471 -0.003,-5.7195 -0.007,-11.439 -0.0157,-17.1585 -0.006,-5.69675 -0.0251,-11.39411 0.0753,-17.09022 0.13552,-5.34394 0.31298,-10.71117 1.29068,-15.98093 1.05713,-5.16765 2.06947,-10.14574 1.50841,-15.48328 -0.001,-5.7174 -0.003,-11.43481 -0.01,-17.15222 -0.007,-5.71727 -0.0232,-11.43459 -9e-4,-17.15184 0.0415,-5.54083 0.0784,-11.09272 0.62549,-16.61184 0.59787,-4.96028 2.10398,-9.74292 2.37156,-14.70417 0.20914,-5.21489 0.508,-10.45197 1.70417,-15.55151 1.24271,-5.28542 1.15913,-10.54475 1.02432,-15.97082 1e-5,-5.7151 -6e-5,-11.4302 0.001,-17.14529 0.002,-5.71933 0.005,-11.43866 0.0133,-17.15799 0.007,-5.6825 0.0254,-11.36527 -0.0363,-17.04754 -0.0882,-5.25901 -0.18831,-10.53737 -0.97272,-15.74853 -0.89668,-5.24897 -2.41098,-10.39177 -1.89346,-15.78016 -0.002,-5.65302 -0.0248,-11.30961 0.2381,-16.95801 0.32455,-5.16187 0.8132,-10.34931 2.59604,-15.24816 1.74013,-5.03144 1.65886,-10.59608 3.86608,-15.53728 0.82207,-5.04632 2.48076,-9.91408 1.92203,-15.0954 -0.0207,-5.46634 -0.0251,-10.94002 -0.43226,-16.39439 -0.47235,-4.97351 -1.45439,-9.82705 -2.58603,-14.68949 -0.24629,-5.8947 -0.75627,-11.76808 -1.72742,-17.59261 -1.20213,-9.21976 -0.77815,-18.45605 -0.97528,-27.73623 0,0 37.80928,-19.26479 37.80928,-19.26479 z"
       inkscape:connector-curvature="0"
       inkscape:export-filename="/home/renmai/git/eduras/Eduras/src/de/illonis/eduras/images/gameobjects/invisibilitypowerup.png"
       inkscape:export-xdpi="2.4200001"
       inkscape:export-ydpi="2.4200001" />
    <path
       style="fill:#ffffff;fill-opacity:1;stroke:#00fb00;stroke-opacity:1"
       id="path3091"
       d="m 234.79098,772.38438 c 8.97969,1.52499 17.65932,4.29987 26.57015,6.13413 6.17476,1.18018 12.17258,2.92319 18.43511,3.68667 5.564,0.80213 11.25895,-0.0421 16.74831,1.13647 4.84227,1.33417 9.83091,1.79099 14.82543,2.06318 5.56521,0.22711 11.13658,0.21274 16.70533,0.21471 5.71718,-0.005 11.43435,-0.0139 17.15152,-0.0185 5.71672,-0.004 11.43344,-0.004 17.15016,-0.005 5.41639,0.64022 10.39623,-0.57771 15.62075,-1.65183 5.23541,-0.93032 10.56404,-1.05894 15.86652,-1.17051 5.68847,-0.08 11.37775,-0.0595 17.06661,-0.052 5.71952,0.009 11.43904,0.0133 17.15857,0.0157 5.71502,0.002 11.43004,0.002 17.14506,0.002 5.52276,-0.35228 11.24721,0.75309 16.64844,-0.58582 4.6821,-1.71196 9.85449,-1.0783 14.49672,-2.70003 4.60647,-0.79493 8.75367,-2.73311 13.22073,-3.96203 5.11677,-1.51821 10.1716,-2.92584 15.5052,-3.59984 5.11305,-0.41145 9.94477,-2.41994 14.77156,-4.04662 2.00623,-0.46411 3.94342,-0.89234 5.63556,-2.07977 0,0 -33.46891,26.50404 -33.46891,26.50404 l 0,0 c -1.93903,0.42752 -3.84029,0.99141 -5.71151,1.6595 -4.9327,1.6728 -9.99863,2.91479 -15.18519,3.47246 -5.16365,1.01717 -10.1394,2.66988 -15.18741,4.13427 -4.38409,1.56091 -8.88095,2.6189 -13.40856,3.6944 -4.93704,0.63555 -9.82164,1.48667 -14.7175,2.37146 -5.64815,0.20716 -11.3026,0.0485 -16.95361,0.0978 -5.71539,-2.4e-4 -11.43078,-5.1e-4 -17.14617,-0.004 -5.71959,-0.004 -11.43918,-0.0109 -17.15877,-0.016 -5.66466,3.5e-4 -11.33109,-0.0137 -16.99339,0.17365 -5.19564,0.23113 -10.39623,0.60367 -15.48125,1.76709 -5.32445,1.05739 -10.65846,1.07512 -16.07762,0.93623 -5.71595,7.3e-4 -11.43191,0.002 -17.14786,0.007 -5.72014,0.006 -11.4403,0.018 -17.16044,0.008 -5.63453,-0.0232 -11.27553,-0.0368 -16.89863,-0.4397 -5.06191,-0.44979 -10.04214,-1.30293 -15.02135,-2.30676 -5.56808,-0.37575 -11.18006,-0.24512 -16.70556,-1.16562 -6.23816,-1.057 -12.30688,-2.81829 -18.51815,-4.01246 -8.86091,-2.12377 -17.60429,-4.73575 -26.63864,-6.08365 0,0 34.85879,-24.1798 34.85879,-24.1798 z"
       inkscape:connector-curvature="0"
       inkscape:export-filename="/home/renmai/git/eduras/Eduras/src/de/illonis/eduras/images/gameobjects/invisibilitypowerup.png"
       inkscape:export-xdpi="2.4200001"
       inkscape:export-ydpi="2.4200001" />
    <path
       style="fill:#ffffff;fill-opacity:1;stroke:#00fb00;stroke-opacity:1"
       id="path3093"
       d="m 288.81235,274.17676 c 9.42189,0.14437 18.84559,0.077 28.26811,0.0416 6.54668,-0.0276 13.09339,-0.0409 19.64012,-0.0474 5.70899,-0.004 11.41798,-0.004 17.12697,-0.004 5.70094,2.3e-4 11.40189,4.2e-4 17.10283,5.2e-4 5.71353,8e-5 11.42705,8e-5 17.14058,8e-5 5.71444,1e-5 11.42889,0 17.14334,0 5.7143,0 11.42861,0 17.14292,0 5.71428,0 11.42857,0 17.14285,0 5.71429,0 11.42857,0 17.14286,0 5.71428,0 11.42857,0 17.14286,0 5.71428,0 11.42857,0 17.14285,0 5.71429,0 11.42857,0 17.14286,0 5.71429,0 11.42857,0 17.14286,0 5.71428,0 11.42857,0 17.14285,0 0.95238,0 1.90477,0 2.85715,0 0,0 -34.35443,24.95995 -34.35443,24.95995 l 0,0 c -0.95238,0 -1.90476,0 -2.85714,0 -5.71429,0 -11.42858,0 -17.14286,0 -5.71429,0 -11.42857,0 -17.14286,0 -5.71428,0 -11.42857,0 -17.14286,0 -5.71428,0 -11.42857,0 -17.14285,0 -5.71429,0 -11.42857,0 -17.14286,0 -5.71429,0 -11.42857,0 -17.14286,0 -5.71428,0 -11.42856,0 -17.14285,0 -5.71431,0 -11.42861,0 -17.14292,0 -5.71444,0 -11.42889,0 -17.14333,0 -5.71361,0 -11.42721,1e-5 -17.14082,9e-5 -5.70141,1e-4 -11.40282,2.8e-4 -17.10424,5.1e-4 -5.70564,1.1e-4 -11.41128,6.1e-4 -17.11692,-0.004 -6.50322,-0.006 -13.00642,-0.0197 -19.50959,-0.0474 -9.46074,-0.0359 -18.92259,-0.10141 -28.38272,0.0416 0,0 34.3301,-24.94228 34.3301,-24.94228 z"
       inkscape:connector-curvature="0"
       inkscape:export-filename="/home/renmai/git/eduras/Eduras/src/de/illonis/eduras/images/gameobjects/invisibilitypowerup.png"
       inkscape:export-xdpi="2.4200001"
       inkscape:export-ydpi="2.4200001" />
    <path
       style="fill:#ffffff;fill-opacity:1;stroke:#00fb00;stroke-opacity:1"
       id="path3095"
       d="m 248.94824,271.85283 c 9.12999,0.64643 18.09579,2.00168 27.08828,3.63925 5.92886,1.10775 11.95405,1.38113 17.96894,1.516 5.09542,0.15864 10.00204,1.74717 15.0841,2.33602 5.37241,0.49869 10.77359,0.5194 16.16442,0.55325 5.70304,0.0171 11.40611,0.002 17.10916,-0.005 5.71857,-0.007 11.43716,-0.008 17.15574,-0.009 5.71473,-7.1e-4 11.42946,-5.7e-4 17.14419,-5.2e-4 4.562,-1.72253 9.67569,-1.3716 14.15327,-3.15455 4.67566,-1.7889 9.68984,-2.12547 14.63783,-2.39634 5.62812,-0.22372 11.26229,-0.19812 16.89372,-0.19362 4.80689,-1.41578 9.73005,-2.11464 14.71173,-2.5008 5.27169,0.34848 10.12315,-0.94928 15.20206,-2.00409 5.24032,-0.9269 10.57413,-1.04483 15.88083,-1.15095 5.69094,-0.0748 11.3826,-0.0535 17.07388,-0.0455 0,0 -34.35614,24.95708 -34.35614,24.95708 l 0,0 c -5.66778,-9e-4 -11.33725,-0.0169 -17.00287,0.16348 -5.19363,0.22448 -10.39785,0.57679 -15.47339,1.78055 -5.11002,1.09133 -10.251,1.22677 -15.44977,1.62979 -4.99601,0.64136 -9.89349,1.99563 -14.93774,2.13545 -5.57427,0.0199 -11.15807,0.0185 -16.71726,0.48111 -4.84925,0.52133 -9.56396,1.51848 -14.20058,3.05087 -4.91349,0.793 -9.7861,2.05579 -14.77,2.20744 -5.7145,1e-5 -11.429,-7e-5 -17.1435,0.001 -5.71768,0.002 -11.43536,0.005 -17.15304,0.0125 -5.71453,0.007 -11.42928,0.0241 -17.14361,-0.0336 -5.51286,-0.0861 -11.0429,-0.19177 -16.51122,-0.96592 -4.91981,-0.78672 -9.76698,-2.16499 -14.79309,-2.0052 -6.12416,-0.2817 -12.23284,-0.83737 -18.24299,-2.10261 -8.92538,-1.70635 -17.90519,-2.72451 -26.97483,-3.33634 0,0 34.60188,-24.55937 34.60188,-24.55937 z"
       inkscape:connector-curvature="0"
       inkscape:export-filename="/home/renmai/git/eduras/Eduras/src/de/illonis/eduras/images/gameobjects/invisibilitypowerup.png"
       inkscape:export-xdpi="2.4200001"
       inkscape:export-ydpi="2.4200001" />
    <path
       style="fill:#ffffff;fill-opacity:1;stroke:#00fb00;stroke-opacity:1"
       id="path3097"
       d="m 251.6695,279.89104 c 9.42188,0.14438 18.84558,0.077 28.2681,0.0416 6.46137,-0.13957 12.76855,-0.34197 19.08388,1.07679 4.74482,0.53497 8.96845,2.69371 13.61551,3.66646 5.12112,0.83807 10.32727,0.87255 15.50282,0.93602 5.69057,0.037 11.38132,0.0123 17.07195,0.001 6.40479,0.007 12.80959,0.007 19.21441,-0.002 5.98144,-0.009 11.96288,-0.012 17.94433,-0.0139 5.72059,-0.001 11.44118,-0.001 17.16178,-0.001 5.71051,5e-5 11.42102,10e-5 17.13153,1.3e-4 5.71394,3e-5 11.42789,3e-5 17.14184,3e-5 5.71432,0 11.42865,0 17.14297,0 5.71429,0 11.42859,0 17.14288,0 5.71429,0 11.42857,0 17.14286,0 5.71428,0 11.42857,0 17.14285,0 5.36698,-0.56297 10.42831,1.16723 15.65834,2.00643 5.2471,0.70877 10.55073,0.77627 15.83638,0.84524 17.57309,0.0743 12.51827,-4.43108 -32.47985,25.03131 -0.55955,0.36637 -1.33757,-0.0139 -2.00638,-0.0193 -0.76689,-0.006 -1.53379,-0.01 -2.30069,-0.015 -4.52257,1.59813 -9.27794,2.12746 -14.0292,2.49396 -5.602,0.33939 -11.21706,0.34021 -16.82712,0.35384 -5.423,-0.637 -10.41471,0.5672 -15.64878,1.63561 -5.23816,0.9251 -10.5684,1.05347 -15.87286,1.16456 -5.68847,0.0796 -11.37775,0.0593 -17.0666,0.0519 -5.71949,-0.009 -11.43898,-0.0132 -17.15847,-0.0156 -5.15646,-0.0717 -10.13015,-1.6929 -15.26397,-2.29848 -5.33299,-0.73327 -10.78054,0.0181 -16.03445,-1.1419 -4.83975,-1.3527 -9.83145,-1.80911 -14.82758,-2.08317 -5.40194,0.3704 -10.46294,-0.76692 -15.69337,-1.83927 -4.83793,-0.34558 -9.24732,-2.30675 -13.98479,-3.19965 -5.18494,-0.7782 -10.4416,-0.81842 -15.67304,-0.87961 -5.69196,-0.0361 -11.3841,-0.0135 -17.07611,-0.003 -4.80229,1.43671 -9.72325,2.14887 -14.70568,2.5414 -4.88213,0.57521 -9.55153,2.11432 -14.49538,2.67727 -5.49097,0.49371 -11.00973,0.50632 -16.51825,0.53391 -5.7157,0.0109 -11.43142,-0.005 -17.14713,-0.0131 -5.71775,-0.007 -11.43552,-0.009 -17.15328,-0.01 -4.7418,-0.21301 -10.4144,1.10925 -14.33553,-2.21962 -7.08654,-16.51128 -2.61232,-3.39536 37.19345,-25.35639 1.2485,-0.6888 6.14239,-0.0958 7.71855,-0.30976 0.77024,-0.10458 1.49872,-0.41312 2.24808,-0.61967 12.58336,-9.27154 0.0771,0.0449 -33.2148,18.6287 -0.52118,0.29093 0.98454,-0.69757 1.36923,-1.15394 1.3134,-1.55814 1.63918,-3.50385 1.85495,-5.44477 -0.5084,-4.93477 -1.51208,-9.76486 -1.53944,-14.74137 0.35735,-4.06851 1.05124,-9.87598 5.0199,-12.28895 12.70924,-7.72731 25.66843,-15.03584 38.50264,-22.55376 5.48485,-1.94948 10.97986,-3.41114 16.77308,-4.11279 5.72752,-0.71051 11.26349,-0.70179 16.87178,0.58041 4.90735,1.39558 10.09424,0.92186 14.9784,2.24764 4.72538,1.50267 9.655,1.93047 14.5754,2.20309 5.56929,0.22723 11.14482,0.20772 16.71762,0.20709 5.71866,-0.007 11.43732,-0.0167 17.15598,-0.0215 5.71675,-0.004 11.4335,-0.004 17.15025,-0.005 5.71437,-1.5e-4 11.42874,-2e-5 17.14312,4e-5 5.71425,5e-5 11.4285,6e-5 17.14276,7e-5 5.64811,-0.19782 11.09183,-0.14291 16.59369,1.13456 4.94619,1.17287 10.0297,1.43371 15.08953,1.61878 5.62149,0.14784 11.24565,0.1287 16.86858,0.12476 5.77539,0.17406 11.60205,-0.50596 17.30344,0.52986 5.62613,1.22816 11.34696,1.79347 17.08672,2.10317 5.68369,0.23604 11.37376,0.22408 17.0612,0.22633 5.36377,-0.56645 10.42542,1.15364 15.65392,1.98764 5.24782,0.70483 10.55155,0.77212 15.8375,0.84079 6.59768,-0.29374 10.32229,0.11272 14.08279,5.91351 2.28161,4.97753 2.65268,10.46576 1.89437,15.82333 -1.15193,4.37471 -2.91362,8.77015 -6.0321,12.10061 -19.36185,11.18093 -31.06754,26.06224 -51.2859,21.51658 -0.78876,-0.16079 -1.6012,-0.23209 -2.36628,-0.48239 -1.51347,-0.49512 -2.88267,-1.36144 -4.37094,-1.92782 -2.19132,-0.83394 -4.28435,-1.2389 -6.41727,-2.25136 -4.05751,-1.68729 -8.28591,-3.19107 -12.0622,-5.45984 -3.96951,-1.60543 -7.90969,-3.39039 -12.02062,-4.65018 -4.87778,-1.16692 -9.92448,-1.22899 -14.91272,-1.3311 -5.67135,-0.0683 -11.34332,-0.0365 -17.01491,-0.0231 -5.7228,0.0142 -11.44563,0.0187 -17.16845,0.0214 -5.71549,0.002 -11.43097,0.002 -17.14646,0.002 -5.65811,-0.25157 -11.41945,0.59661 -16.98578,-0.56245 -0.82162,-0.19078 -1.6718,-0.28511 -2.46488,-0.57234 -1.50032,-0.54338 -2.82694,-1.48724 -4.29011,-2.12391 -2.08341,-0.90656 -4.11329,-1.35747 -6.1495,-2.4013 -4.10991,-2.29778 -8.90684,-1.97775 -13.2657,-3.35655 -4.63378,-1.60091 -9.51671,-1.98483 -14.37355,-2.24801 -5.57415,-0.21898 -11.15416,-0.19539 -16.73153,-0.19234 -5.55273,0.58596 -10.7534,-0.50333 -16.13531,-1.59755 -5.09782,-0.93431 -10.29033,-1.07294 -15.45762,-1.18957 -5.63514,-1.29753 -11.33868,-2.119 -17.09927,-2.56076 -5.67624,-0.34867 -11.36593,-0.3497 -17.05054,-0.36223 -5.71252,-10e-4 -11.42503,0.0111 -17.13755,0.0171 -5.41674,-0.6358 -10.39696,0.5839 -15.62151,1.6586 -4.43259,1.94231 -9.23155,3.60636 -13.20608,6.40365 58.75024,-41.71353 39.53579,-22.92708 26.49257,-13.50083 -3.05387,3.00666 -5.15456,7.01748 -7.34789,10.71156 -2.12531,4.41895 -1.16789,4.60324 2.03135,7.04953 3.83009,2.24633 8.37775,2.38029 12.69861,2.62293 5.59622,0.20946 11.1981,0.16062 16.79707,0.14425 5.72897,-0.0215 11.45797,-0.0323 17.18697,-0.0384 5.65079,-0.20212 11.0972,-0.14824 16.60178,1.12966 4.94614,1.17295 10.02958,1.43396 15.08937,1.61911 5.62144,0.14792 11.24556,0.12879 16.86844,0.12486 5.7191,-0.008 11.43819,-0.0145 17.15729,-0.0179 5.55069,-0.58092 10.74644,0.51886 16.12394,1.61867 4.98562,0.26648 9.62582,1.69513 14.43888,2.83924 5.02579,1.01346 10.16946,1.12025 15.27731,1.22895 5.66611,0.0774 11.333,0.053 16.99947,0.0437 5.72075,-0.0108 11.44151,-0.0151 17.16228,-0.0176 5.71543,-0.002 11.43087,-0.002 17.1463,-0.002 5.77044,0.18216 11.59319,-0.49111 17.28899,0.54811 5.62393,1.23126 11.34328,1.79643 17.08144,2.10621 5.68365,0.2361 11.37368,0.22404 17.06109,0.22625 5.71288,-0.005 11.42575,-0.0139 17.13862,-0.0186 5.71463,-0.004 11.42926,-0.004 17.14388,-0.005 5.71433,-1.7e-4 11.42866,-6e-5 17.14299,-1e-5 5.52279,-0.3522 11.24725,0.75324 16.64854,-0.58562 0.77143,-0.19282 1.53895,-0.40207 2.31431,-0.57847 3.94922,-0.89846 0.88493,0.13602 4.27194,-1.52351 0.65257,-0.31974 2.62718,-1.23621 1.99733,-0.87375 -31.86539,18.33758 -46.88975,25.69875 -33.57086,19.14645 -0.13922,-0.58249 1.17984,-0.45611 1.27267,-0.98432 0.25148,-1.43084 -1.23294,-5.4547 -1.54014,-6.97795 -1.43068,-4.15183 -2.49743,-8.39536 -4.05376,-12.50155 -1.33263,-4.54352 -2.50007,-9.11356 -3.81695,-13.66773 -0.73211,-2.87839 -0.87687,-5.79965 -2.35764,-8.41069 0,0 36.89869,-21.22616 36.89869,-21.22616 l 0,0 c 1.62912,2.96198 2.36069,5.94384 2.81467,9.28842 1.22834,4.45655 2.56384,8.84489 3.64661,13.33481 1.65308,4.33567 2.76921,8.79541 4.40429,13.14294 0.71869,3.87849 2.69325,7.72437 2.11847,11.65165 -8.97145,15.39956 -30.82887,22.64627 -48.44896,25.62767 -5.64818,0.2071 -11.30264,0.0483 -16.95366,0.0977 -5.71424,-4e-5 -11.42848,-1.6e-4 -17.14272,3.7e-4 -5.71395,7.8e-4 -11.42789,0.002 -17.14184,0.008 -5.71569,0.006 -11.4314,0.0184 -17.14709,0.007 -5.74343,-0.0262 -11.49243,-0.0531 -17.22462,-0.45459 -5.77549,-0.48024 -11.4844,-1.36581 -17.20418,-2.28175 -5.6599,-0.28311 -11.33124,-0.0701 -16.99649,-0.13566 -5.71492,1.9e-4 -11.42985,3.4e-4 -17.14478,0.004 -5.7202,0.004 -11.4404,0.0111 -17.16059,0.0195 -5.6975,0.004 -11.39667,0.0247 -17.09216,-0.15044 -5.32293,-0.22651 -10.67042,-0.5654 -15.84481,-1.93465 -4.72765,-1.23543 -9.50662,-1.87609 -14.32137,-2.68622 -5.16483,-1.03038 -10.31828,-1.15331 -15.5825,-0.96061 -5.72018,0.005 -11.44037,0.0143 -17.16056,0.0142 -5.66962,-0.009 -11.34272,-0.005 -17.00692,-0.2855 -5.20751,-0.33103 -10.387,-0.91164 -15.47819,-2.09881 -5.31497,-0.85491 -10.70581,-0.37744 -16.06953,-0.48368 -5.72879,0.009 -11.45755,0.0261 -17.18633,0.0383 -5.67891,-8.3e-4 -11.36859,0.0364 -17.03332,-0.42364 -5.01828,-0.56135 -10.02137,-1.42319 -14.13853,-4.58216 -4.19475,-3.2438 -6.18336,-6.88506 -4.74822,-12.26558 1.85501,-4.31272 4.96334,-7.76157 6.66681,-12.14104 10.6866,-11.65585 46.57268,-22.01463 46.01833,-29.31996 4.58223,-2.03033 8.98659,-4.54111 14.0162,-5.33927 5.32373,-1.05874 10.6575,-1.07897 16.07633,-0.94591 5.71789,-0.007 11.43584,-0.0224 17.15368,0.005 5.75978,0.0496 11.5283,0.11473 17.26662,0.66572 5.6825,0.62361 11.27336,1.82165 16.96089,2.34347 5.33343,0.22637 10.67384,0.58881 15.90256,1.73596 5.17263,1.02398 10.33254,1.13492 15.60275,0.95011 5.64593,0.0167 11.29923,0.0163 16.93336,0.42848 5.03681,0.47139 9.99525,1.31538 14.8348,2.82936 4.7104,0.858 9.42576,1.66012 13.70473,3.95873 4.00469,1.51892 7.8879,3.56265 12.16871,4.11496 5.53188,0.28799 11.07876,0.037 16.61602,0.12147 5.7149,-1.4e-4 11.42981,-1.7e-4 17.14472,-0.004 5.72153,-0.004 11.44306,-0.0124 17.16457,-0.0259 5.70413,-0.009 11.41014,-0.0416 17.11229,0.13522 5.29789,0.23822 10.65591,0.55904 15.70324,2.33693 4.18859,1.60492 8.45684,3.08539 12.4145,5.20918 3.89051,1.81276 7.7883,3.59138 11.80894,5.10078 4.16513,1.41469 8.24023,3.22403 12.60601,3.89337 16.35022,1.81223 42.40017,-20.34584 -23.16914,18.45968 4.84826,-1.81871 4.98062,-4.94268 7.41869,-9.04675 1.01039,-4.32972 1.28937,-8.67559 -0.39216,-12.92192 -2.57868,-3.72887 -7.82394,-2.22173 -11.75607,-2.53296 -5.43596,-0.14718 -10.89014,-0.35918 -16.25175,-1.34342 -5.04339,-0.95575 -10.01607,-1.86409 -15.18961,-1.42904 -5.74341,-0.0262 -11.49237,-0.0532 -17.22455,-0.45447 -5.77631,-0.47983 -11.48617,-1.36493 -17.20744,-2.27626 -5.66617,-0.27855 -11.34311,-0.0556 -17.01442,-0.12152 -5.66964,-0.009 -11.34277,-0.005 -17.00701,-0.28535 -5.20765,-0.33094 -10.38734,-0.91131 -15.4786,-2.09882 -5.31337,-0.85537 -10.70272,-0.37923 -16.06495,-0.49251 -5.71426,-2e-5 -11.42852,-4e-5 -17.14278,-1e-4 -5.71428,-6e-5 -11.42856,-1.9e-4 -17.14284,2.8e-4 -5.71592,7.1e-4 -11.43184,0.002 -17.14776,0.008 -5.72121,0.006 -11.44242,0.0194 -17.16364,0.0128 -5.64123,-0.0203 -11.28965,-0.0269 -16.91879,-0.44265 -5.0461,-0.46977 -10.00689,-1.33394 -14.91184,-2.6229 -4.99776,-0.62639 -10.02788,-1.02324 -14.94326,-2.19953 -5.3051,-0.77536 -10.68503,-0.18827 -15.96854,0.55939 -5.49339,1.0636 -10.93022,2.6716 -15.87587,5.33451 11.33185,-6.67379 22.66371,-13.34759 33.99556,-20.02138 -1.88419,1.10541 -4.04558,2.3872 -5.24687,4.31295 -1.03935,1.66617 -0.98451,2.8217 -1.25974,4.73573 -0.56343,4.8917 0.77874,9.68865 1.50071,14.51337 1.60672,20.03475 -23.90902,29.7537 -41.90297,32.86821 -2.52869,0.18249 -5.09262,0.25066 -7.59795,0.66643 -0.75543,0.12536 -2.88724,0.89818 -2.24697,0.47813 34.42255,-22.58261 42.33498,-10.65664 32.61451,-23.53144 4.15272,-0.22105 8.53708,0.94963 12.74303,0.36985 5.71856,0.002 11.43712,0.005 17.15567,0.0136 5.70708,0.008 11.41441,0.0273 17.1213,-0.0302 5.41361,-0.0866 10.84996,-0.18088 16.21021,-1.02274 4.86483,-0.88452 9.61425,-2.37843 14.59317,-2.52638 4.99535,-0.65216 9.88891,-2.02861 14.9343,-2.17022 5.71168,-0.008 11.42405,-0.0327 17.13507,0.0711 5.42529,0.14678 10.88622,0.33483 16.20255,1.53051 4.63469,1.15664 9.18149,2.58915 13.94854,3.15273 5.08182,1.04485 10.16589,1.23653 15.34604,1.40703 5.06845,0.45351 10.05456,1.31013 15.03603,2.33876 5.33321,0.37472 10.70695,0.26669 16.00453,1.10454 4.94507,0.79134 9.83012,2.17718 14.88624,1.84802 5.71955,0.004 11.4391,0.0108 17.15865,0.0159 5.66479,-3.6e-4 11.33134,0.0136 16.99379,-0.17285 5.19836,-0.22999 10.40148,-0.60106 15.49083,-1.75631 5.32923,-1.04917 10.66612,-1.05621 16.08821,-0.94624 5.54114,-0.0528 11.09474,-0.10509 16.60976,-0.70336 4.79933,-0.62162 9.48791,-1.98493 14.32412,-2.16231 1.45997,-0.005 5.51405,-0.94194 4.37986,-0.0226 -31.9694,25.91294 -19.53457,25.51599 -36.42179,24.91957 -5.43657,-0.14795 -10.89155,-0.3611 -16.25288,-1.35121 -5.0416,-0.96145 -10.01171,-1.88142 -15.18533,-1.43562 -5.71429,0 -11.42858,0 -17.14286,0 -5.71429,0 -11.42857,0 -17.14286,0 -5.71429,0 -11.42858,0 -17.14288,0 -5.71432,0 -11.42864,0 -17.14297,10e-6 -5.71397,0 -11.42795,0 -17.14192,2e-5 -5.71062,3e-5 -11.42123,8e-5 -17.13185,6e-5 -5.71925,-6e-5 -11.43849,-1e-4 -17.15774,-0.002 -5.96934,-0.002 -11.93867,-0.006 -17.90801,-0.0105 -6.41648,-0.003 -12.83289,0.004 -19.24929,0.0344 -5.71168,0.009 -11.42415,0.0366 -17.1351,-0.0732 -5.39547,-0.15604 -10.83602,-0.34865 -16.09768,-1.67054 -4.47221,-1.26577 -8.81338,-2.94995 -13.46874,-3.49319 -6.09682,-0.95334 -12.29143,-0.35439 -18.43878,-0.55026 -9.46074,-0.0359 -18.92259,-0.10141 -28.38272,0.0416 0,0 34.33011,-24.94228 34.33011,-24.94228 z"
       inkscape:connector-curvature="0" />
    <path
       style="fill:#ffffff;fill-opacity:1;stroke:#00fb00;stroke-opacity:1"
       id="path3099"
       d="m 350.33321,322.94852 c -0.14369,9.11148 -0.51781,18.23239 0.65178,27.28755 0.53109,4.99574 2.32233,9.70203 4.5031,14.18284 1.34355,4.09447 3.07229,7.88977 5.29068,11.56927 2.99705,3.10118 4.5606,7.14313 6.41053,10.96178 1.50688,4.39869 3.33352,8.6867 4.53226,13.18811 1.08716,4.89016 -0.59651,9.02289 -2.91902,13.21774 -2.72927,3.82466 -4.60635,8.04114 -6.65254,12.23893 -2.22125,4.3607 -2.70455,9.20171 -3.04053,14.00445 -0.27462,5.61554 -0.23622,11.24039 -0.2289,16.86089 0.0145,5.72374 0.026,11.44747 0.0321,17.17122 0.005,5.71632 0.005,11.43264 0.006,17.14897 0.19041,5.85896 -1.18632,11.59827 -1.95605,17.37441 -0.41356,5.39603 -0.80583,10.71554 -1.96309,16.00895 -0.808,4.62737 -2.45696,9.0322 -3.75175,13.53623 -1.94969,4.3164 -2.85725,8.86718 -3.35512,13.54465 -0.44077,5.53654 -0.42363,11.09613 -0.43539,16.64624 0.002,5.72201 0.0168,11.44399 0.0243,17.16599 0.007,5.71729 0.008,11.43458 0.008,17.15187 4e-4,5.71435 2.2e-4,11.42871 1.4e-4,17.14306 -0.0747,5.79141 0.20056,11.59054 -0.22973,17.36925 -0.64138,5.48956 -1.73552,10.85185 -3.31595,16.13945 -1.4927,4.82163 -1.54918,9.89249 -2.64755,14.79161 -1.04267,4.66642 -1.88249,9.32905 -3.22865,13.92138 -1.40476,4.77772 -1.42606,9.77949 -2.49245,14.62107 -0.87873,4.51027 -2.96426,8.59808 -4.0635,13.04537 -1.03061,5.20834 -1.08652,10.53979 -1.1698,15.82905 -0.24627,5.00755 1.20565,9.86273 1.94149,14.77866 0.72707,5.51153 0.82546,11.07722 0.90491,16.62775 0.15987,4.543 1.85135,8.65871 3.3598,12.85981 1.05973,3.76624 2.01829,7.66718 5.78876,9.411 4.64107,1.27536 9.52769,1.18222 14.30363,1.23019 4.78888,-1.44511 9.6961,-2.17984 14.66718,-2.5917 5.00519,-0.22698 9.90169,1.3414 14.88227,1.91454 2.01841,-0.64172 4.33229,-0.51704 6.33024,-1.19754 1.30283,-0.44374 2.44871,-1.26216 3.71297,-1.80612 -11.62309,6.58366 -23.24618,13.16732 -34.86927,19.75098 4.09212,-1.94812 6.22837,-4.48942 7.42302,-8.8127 0.71553,-4.18011 -1.37945,-7.57077 -3.66696,-10.86931 -3.34399,-4.44294 -6.37224,-8.745 -8.1359,-14.06819 -1.00532,-5.6541 0.0829,-11.4007 0.58474,-17.06 0.71102,-5.18872 0.46699,-10.21741 -0.49199,-15.33038 -0.45121,-4.77222 -2.06225,-9.26967 -3.14036,-13.90848 -1.10258,-5.36782 -1.26205,-10.8599 -1.39007,-16.31945 -0.0881,-5.71534 -0.064,-11.43165 -0.0552,-17.14745 0.0104,-5.71899 0.015,-11.43799 0.0176,-17.15699 -0.3099,-5.20293 1.1146,-10.23611 1.92076,-15.32619 0.74512,-5.34256 0.83859,-10.74442 0.91992,-16.1291 0.0553,-5.7007 0.0381,-11.4018 0.0316,-17.10267 0.32266,-5.05761 1.60478,-9.97528 2.21275,-15.00474 0.28011,-5.23545 0.62007,-10.3801 1.713,-15.514 1.0002,-5.25354 2.66291,-10.3242 3.60843,-15.59068 0.24756,-4.76048 -0.76618,-9.49067 -1.22806,-14.22241 -0.47941,-5.58513 -0.54404,-11.19375 -0.59606,-16.79566 0.10458,-5.70689 -1.24368,-11.30014 -1.96847,-16.93662 -0.28964,-5.30779 -0.87627,-10.48154 -2.00385,-15.67097 -1.15496,-5.2662 -1.44912,-10.65483 -1.64358,-16.02558 -0.14928,-5.69658 -0.13104,-11.39583 -0.12749,-17.09386 0.0528,-5.58657 -0.28931,-11.17206 0.61978,-16.70284 1.16259,-4.93826 1.70967,-9.96484 2.01638,-15.01838 0.26127,-5.61163 0.25376,-11.23118 0.26078,-16.84753 -0.001,-5.71894 -0.0102,-11.43787 -0.0148,-17.1568 -0.004,-5.7161 -0.005,-11.43219 -0.005,-17.14828 -2.4e-4,-5.71433 -1.3e-4,-11.42866 -8e-5,-17.14298 5e-5,-5.71426 6e-5,-11.42852 7e-5,-17.14278 10e-6,-5.71429 10e-6,-11.42857 10e-6,-17.14285 0.39986,-5.02486 1.4417,-10.00191 2.39915,-14.95151 0.84509,-2.97867 0.41768,-1.50022 1.28174,-4.43552 0,0 38.40665,-18.2863 38.40665,-18.2863 l 0,0 c -0.776,3.0159 -0.34394,1.54237 -1.28843,4.42288 -1.64016,4.44962 -1.47076,9.43447 -2.96305,13.97201 0,5.71428 0,11.42857 0,17.14285 -10e-6,5.71427 -2e-5,11.42854 -6e-5,17.14281 -4e-5,5.71425 -1.4e-4,11.42851 -5e-5,17.14276 1.9e-4,5.71529 3.9e-4,11.43058 0.003,17.14588 0.004,5.72032 0.0106,11.44064 0.0174,17.16096 0.002,5.6761 0.0187,11.35368 -0.14914,17.02792 -0.20925,5.21623 -0.50836,10.45473 -1.70652,15.55527 -1.24594,5.29021 -1.16767,10.55572 -1.04082,15.98742 -0.006,5.65531 -0.027,11.31129 0.0761,16.96594 0.13634,5.12689 0.31117,10.27959 1.32706,15.32325 1.13963,5.32587 2.09051,10.56717 2.13176,16.04379 0.6606,5.80064 2.10058,11.52478 2.19403,17.36051 0.0335,5.48971 0.066,10.98508 0.46177,16.46327 0.43749,5.07819 1.3807,10.08976 1.67876,15.17582 -0.73784,5.37779 -2.21824,10.51543 -3.46448,15.76313 -1.05186,5.04153 -2.15736,9.91297 -1.93217,15.12654 -0.43039,4.94312 -1.20851,9.81394 -2.44367,14.62457 0.007,5.71626 0.0228,11.43258 -0.003,17.14881 -0.045,5.53487 -0.088,11.08079 -0.64283,16.59325 -0.60456,4.98299 -2.1428,9.81947 -2.22355,14.82178 -0.002,5.7206 -0.005,11.4412 -0.0157,17.16179 -0.01,5.68767 -0.0329,11.37557 0.0212,17.06308 0.0826,5.1925 0.15281,10.41545 1.04706,15.5456 0.99202,4.70852 2.80988,9.1935 3.19776,14.02361 1.05655,5.46475 1.79221,10.79581 0.96838,16.37794 -0.39704,5.20179 -1.16604,10.37838 -1.30948,15.59186 1.44678,4.98133 4.45993,8.79879 7.48437,12.94253 2.95587,4.21671 5.3527,8.5913 5.31874,13.89436 -0.66776,4.61273 -1.47913,9.6069 -5.97824,12.00174 -12.60901,7.18904 -31.23964,24.82074 -49.60869,23.1319 -4.74164,-0.70952 -9.45741,-1.97227 -14.27272,-1.09741 -5.00296,0.674 -9.91496,2.10415 -14.97879,2.12592 -5.35508,-0.19977 -10.90057,-0.35428 -15.68031,-3.07148 -3.95044,-2.99221 -6.14643,-7.02554 -7.2251,-11.86015 -1.61304,-4.64978 -3.54613,-9.13982 -3.94262,-14.12721 -0.051,-5.37953 -0.0973,-10.77203 -0.68858,-16.12533 -0.68,-5.13889 -2.27209,-10.17066 -2.20295,-15.36951 0.04,-5.51291 0.0584,-11.04634 0.76361,-16.52341 0.80551,-4.92336 2.42547,-8.59453 3.98275,-13.19371 1.31699,-4.86379 1.58404,-9.75485 2.43862,-14.72133 1.17609,-4.62553 2.73764,-9.05208 3.27688,-13.83331 1.34843,-4.93178 1.62683,-9.9076 2.59811,-14.92928 1.40291,-5.17565 3.19668,-10.15447 3.65965,-15.55853 0.96135,-5.57129 0.2299,-11.28257 0.45401,-16.91625 8e-5,-5.71423 2.4e-4,-11.42847 9e-5,-17.1427 -3.3e-4,-5.71597 -6.5e-4,-11.43193 -0.006,-17.1479 -0.006,-5.72434 -0.0175,-11.44868 -0.0288,-17.17301 -0.003,-5.65239 -0.0311,-11.30884 0.24603,-16.95611 0.33193,-4.94892 0.75966,-9.97388 2.79925,-14.56443 1.03393,-2.13738 1.30374,-4.26154 2.03495,-6.50834 0.44328,-1.36206 1.20892,-2.61048 1.59752,-3.98913 0.22822,-0.80965 0.27483,-1.65981 0.41224,-2.48971 1.11341,-5.22298 2.26439,-10.28933 2.18786,-15.68889 0.63252,-5.65818 2.04819,-11.23221 2.18536,-16.91103 -7e-5,-5.71523 5e-5,-11.43045 -0.004,-17.14567 -0.005,-5.72254 -0.0126,-11.44508 -0.0302,-17.1676 -0.0143,-5.6894 -0.0543,-11.38041 0.10148,-17.06835 0.21467,-5.20636 0.46195,-10.50011 2.28361,-15.44051 0.60935,-1.36264 1.43886,-2.62062 2.03327,-3.98985 1.29198,-2.97609 1.96939,-6.17818 4.54748,-8.4496 1.73905,-3.4402 4.45005,-6.36125 4.29844,-10.41788 -1.01205,-4.27132 -2.85135,-8.23848 -4.14054,-12.42048 -1.79281,-3.72735 -3.36412,-7.53715 -6.22137,-10.61338 -2.28683,-3.78741 -4.19021,-7.66389 -5.46921,-11.91475 -2.36566,-4.89378 -4.38745,-10.03267 -4.98255,-15.48121 -1.20212,-9.21975 -0.77815,-18.45604 -0.97528,-27.73622 0,0 37.80928,-19.26479 37.80928,-19.26479 z"
       inkscape:connector-curvature="0" />
    <path
       style="fill:#ffffff;fill-opacity:1;stroke:#00fb00;stroke-opacity:1"
       id="path3101"
       d="m 313.00601,438.50081 c 2.28504,-9.23595 3.65022,-18.66021 4.56291,-28.12032 0.57215,-6.43966 0.6585,-12.90631 0.69383,-19.36672 0.009,-5.70218 -0.0136,-11.40435 -0.0246,-17.10651 -0.0101,-5.70234 -0.0119,-11.4047 -0.0131,-17.10705 -7.9e-4,-5.71372 -5.4e-4,-11.42744 -4.5e-4,-17.14116 -0.0706,-4.92589 0.13739,-9.85933 -0.0995,-14.78197 36.30821,-20.63229 39.46804,-30.2149 37.72497,-8.16386 -0.99466,5.63248 -1.81921,11.27506 -2.26162,16.9785 -0.0179,5.19132 -1.49252,10.1855 -2.32049,15.27137 -0.75267,5.34122 -0.83428,10.7439 -0.91025,16.12793 -0.05,5.70101 -0.0319,11.40235 -0.0247,17.1035 0.30305,5.89106 -0.15973,11.67057 -1.12596,17.47328 -1.01603,5.5767 -1.38125,11.23197 -1.59282,16.88668 -0.15951,5.69232 -0.14537,11.38761 -0.14389,17.08162 -0.0395,5.58157 0.31445,11.16065 -0.58679,16.68772 -1.15712,4.93879 -1.70376,9.96473 -2.0101,15.01771 -0.26113,5.6117 -0.25379,11.2313 -0.2609,16.84772 0.44167,5.35627 -0.52999,10.5313 -1.51757,15.75419 -0.94465,5.20259 -1.12573,10.4953 -1.25918,15.7681 -0.13991,5.551 0.21428,11.09797 -0.68015,16.59541 -1.152,4.94418 -1.6944,9.97507 -1.9986,15.03231 -0.25909,5.61257 -0.25172,11.2329 -0.25871,16.85011 0.001,5.71891 0.0101,11.43783 0.0147,17.15674 0.19446,5.86061 -1.18159,11.60206 -1.95097,17.37984 -0.68684,5.61772 -0.80393,11.28094 -0.88501,16.9331 -0.0528,5.7061 -0.0359,11.41256 -0.0293,17.11882 0.007,5.71487 0.0103,11.42974 0.012,17.14461 -0.0873,5.68254 0.20525,11.37632 -0.19246,17.04825 -0.94799,5.06086 -1.68974,10.16409 -2.91722,15.16716 -1.48871,5.36578 -2.05832,10.89468 -2.38915,16.43285 0.0743,5.17677 -1.35582,10.16995 -2.16041,15.24159 -0.73768,5.34504 -0.82153,10.74884 -0.8979,16.13504 -0.0103,5.33052 -0.3554,10.64856 0.6211,15.90972 1.38004,3.6367 3.60694,6.95437 5.86485,10.11402 2.15595,3.267 4.6501,6.40783 7.53189,9.07048 3.52722,2.01039 5.43648,5.45052 9.2629,7.00555 1.92924,0.42176 4.07133,1.34488 6.0355,0.46076 0.5514,-0.2482 1.94564,-1.42609 1.41673,-1.13301 -34.02441,18.85414 -45.91779,28.10223 -33.85208,18.82128 2.35308,-4.35002 2.66486,-9.62756 3.6159,-14.45488 0.91073,-5.78761 2.56974,-11.40365 3.52705,-17.18321 0.42304,-5.13719 2.01949,-10.04737 2.90669,-15.10387 0.79137,-5.32946 0.8601,-10.72819 0.93195,-16.1048 0.37946,-5.03702 1.64273,-9.93739 2.24188,-14.9535 0.54197,-5.46509 0.58018,-10.96264 0.62382,-16.44927 -0.14413,-5.50277 0.34002,-11.04614 -0.22534,-16.52812 -0.95359,-4.62685 -1.51023,-9.30615 -2.86985,-13.83531 -1.07971,-4.60261 -2.21831,-9.14809 -3.5161,-13.69578 -1.30197,-4.84464 -1.35417,-9.86123 -2.5053,-14.73112 -1.36477,-5.08581 -1.82824,-10.32639 -2.11674,-15.56397 -0.23599,-5.68132 -0.22204,-11.3691 -0.22411,-17.05418 0.005,-5.72094 0.0137,-11.44187 0.0183,-17.16281 0.0493,-5.58247 -0.29826,-11.16322 0.60725,-16.69046 1.16025,-4.93792 1.70692,-9.9637 2.01339,-15.01644 0.26117,-5.61166 0.25373,-11.23123 0.2608,-16.84761 0.0876,-5.68702 -0.21431,-11.38466 0.17906,-17.06135 0.94322,-4.92742 1.81637,-9.84045 2.25479,-14.84185 0.38829,-5.54849 0.39795,-11.11402 0.41962,-16.67326 0.009,-5.71646 -0.003,-11.43293 -0.009,-17.1494 -0.005,-5.71681 -0.006,-11.43363 -0.007,-17.15045 -4.7e-4,-5.71441 -3.5e-4,-11.42882 -3.1e-4,-17.14323 5e-5,-5.71426 8e-5,-11.42851 9e-5,-17.14277 -0.31165,-5.2026 1.11273,-10.2356 1.9188,-15.32535 0.74516,-5.34261 0.8387,-10.74453 0.92007,-16.12927 0.0553,-5.70071 0.0381,-11.40181 0.0316,-17.10269 0.47575,-5.1471 -0.67485,-10.08112 -1.58629,-15.09438 -0.33208,-4.87762 -1.78368,-9.52119 -2.79621,-14.27287 -1.14967,-5.17454 -0.85354,-10.50885 -1.53064,-15.7304 -1.17772,-4.96701 -1.90231,-9.99576 -2.3085,-15.07918 -0.35916,-5.64408 -0.36481,-11.30251 -0.38184,-16.95558 -0.0466,-5.35015 0.33066,-10.68594 -0.63598,-15.96897 -1.18339,-3.58877 -4.1348,-5.61334 -7.63016,-6.59852 -4.98468,-0.94576 -10.09108,-0.89033 -15.14504,-0.92044 -5.41977,-0.64023 -10.39689,0.61687 -15.61872,1.70603 -0.82304,0.12988 -1.66995,0.1538 -2.4691,0.38963 -1.42113,0.41937 -2.68866,1.26408 -4.09713,1.72417 -2.31684,0.75681 -4.6847,1.09063 -7.08981,1.41252 -4.77169,0.84063 -9.32939,2.35145 -14.21243,2.91654 -5.43688,0.27145 -10.99821,1.06389 -16.36579,-0.0369 -4.86172,-1.32778 -9.86189,-1.82074 -14.87433,-2.11005 -4.79931,-0.33664 -9.95575,0.1105 -14.2349,2.45374 -1.22402,0.93115 -2.82248,0.91374 -4.15519,1.55471 -0.63063,0.3033 -2.33723,1.5366 -1.72882,1.19089 52.43409,-29.79376 43.50046,-27.38574 31.76703,-17.4342 -3.32907,3.32654 -3.68114,8.01975 -4.05177,12.46495 -0.46268,4.3456 0.31716,8.46663 2.90862,12.00944 2.00004,3.52141 5.26826,5.57887 8.32335,7.99921 0.54863,0.33378 1.12946,0.61963 1.64589,1.00134 2.10159,1.55338 1.15735,1.33547 3.28932,2.58132 1.78521,1.04322 3.76089,1.48448 5.59153,2.4792 4.142,2.11233 8.7956,2.40457 13.35108,2.67408 5.56589,0.22739 11.13832,0.18785 16.70757,0.17716 5.55687,-0.59245 10.76194,0.49368 16.14852,1.58752 5.15198,1.05704 9.33421,1.21855 14.42108,0.0201 4.8098,-0.31624 9.13584,-2.05751 13.74279,-3.21678 14.61841,-6.87355 37.73353,-20.98618 -25.15729,15.10583 1.11131,-0.22157 3.12299,-3.04555 4.45102,-2.72232 0.21537,0.0524 -0.27168,0.40497 -0.48846,0.45119 -4.17521,-1.90869 -8.66663,-2.80822 -13.00613,-4.31355 -4.66966,-0.91181 -8.89994,-3.00193 -13.56121,-3.9647 -4.63461,-0.67413 -8.98237,-2.56195 -13.22785,-4.4578 -4.29365,-1.14907 -8.17802,-3.17932 -12.54462,-4.11215 -4.5326,-2.48237 -9.52335,-2.98638 -14.57425,-3.40966 -5.97003,-0.38891 -11.95628,-0.37214 -17.936,-0.37344 -0.61218,-0.12306 -3.91943,-0.66266 -4.69024,-1.21792 -1.77033,-1.27528 -2.98111,-4.50052 -1.9056,-6.54771 0.30785,-0.58597 0.98688,-0.88238 1.48032,-1.32357 21.14022,-14.52465 31.20471,-22.8253 52.24989,-24.21279 5.81313,-0.27957 11.63535,-0.24119 17.4534,-0.23035 5.78434,0.20185 11.62374,-0.4626 17.33237,0.58497 5.62263,1.23642 11.34172,1.80214 17.07955,2.11219 5.64995,0.64685 11.63353,1.28536 17.06103,3.09414 4.71864,1.81495 9.71784,2.33169 14.71912,2.64138 5.61804,0.40477 10.19668,0.42516 15.65096,-0.95061 0.78932,-0.1641 1.60926,-0.21972 2.36798,-0.49231 1.36398,-0.49003 2.54386,-1.41159 3.90101,-1.92024 2.25363,-0.84463 4.57968,-1.20322 6.9459,-1.55593 3.51889,-0.73943 7.20843,-0.12095 10.73516,-0.60224 1.57295,-0.21465 3.06622,-0.82442 4.60361,-1.22026 4.70246,-1.69595 9.04919,-4.17021 13.77896,-5.76481 5.17815,-1.38523 10.56961,-1.48821 15.89444,-1.60681 5.78837,0.12483 11.46895,1.62851 17.24278,2.26307 4.80777,1.73415 9.75796,2.66792 14.82998,3.12578 5.47928,0.37303 10.97525,0.35761 16.46434,0.36612 5.71233,-0.003 11.42464,-0.0172 17.13697,-0.0242 5.15876,0.0634 10.13618,1.68386 15.27179,2.28902 4.51693,1.51974 9.04332,2.6129 13.48857,4.30208 3.92424,2.00184 6.93545,5.14153 10.28297,7.90219 3.20948,2.88758 5.7312,6.27963 8.07774,9.88924 2.75249,4.68807 3.17883,9.29155 0.18852,13.89604 -0.63408,0.56376 -1.17379,1.25624 -1.90223,1.69127 -28.88618,17.25091 -70.05157,40.36924 -4.41222,2.81071 1.88658,-1.07949 -1.85274,1.20803 -4.47239,2.71693 -12.91404,7.43844 -25.83548,14.86402 -38.75323,22.29603 11.38782,-6.54132 22.74903,-13.1292 34.16347,-19.62396 0.73137,-0.41614 -1.38111,0.96542 -2.11009,1.38576 -12.84763,7.40807 -25.6943,14.81883 -38.61585,22.09722 -11.53208,6.49573 45.65585,-26.7886 34.44735,-19.74921 -31.81507,19.98116 -24.82923,17.31011 -40.52917,22.98445 -0.78347,0.18721 -1.59714,0.2762 -2.35039,0.56163 -0.67906,0.25732 -1.27183,0.70127 -1.90775,1.05191 -0.68152,0.2794 -1.34823,0.5981 -2.04456,0.83821 -2.29693,0.79204 -4.67095,1.09882 -7.06642,1.40922 -5.41549,0.72117 -10.62221,0.61997 -15.91993,-0.60269 -4.65692,-1.09641 -8.99609,-3.34858 -13.4497,-5.10915 -0.80899,-0.2472 -1.64205,-0.4262 -2.42696,-0.74161 -1.5226,-0.7605 -3.0229,-1.55522 -4.60971,-2.17907 -2.27039,-0.8926 -4.50532,-1.31953 -6.73573,-2.33966 -4.33576,-1.69347 -8.85701,-2.40226 -13.26894,-3.86659 -4.53491,-0.81801 -8.61661,-2.85815 -13.13142,-3.78606 -4.18589,-2.20244 -8.72634,-2.98223 -13.37428,-3.42114 -5.46231,-0.37986 -10.9423,-0.35515 -16.41473,-0.35962 -4.43734,-0.56202 -8.50288,0.79309 -12.77188,1.67765 0,0 33.89236,-25.68097 33.89236,-25.68097 l 0,0 c 4.38888,-0.87971 8.76353,-1.18079 13.24542,-0.94354 5.58872,0.041 11.19711,0.0612 16.75107,0.76026 4.72639,0.75053 9.19542,2.15348 13.67588,3.80589 4.46075,1.26927 8.79058,2.94746 13.31001,4.02537 4.47612,1.39881 9.18278,2.03808 13.43833,4.12488 4.65318,1.60422 9.15496,3.50991 13.74406,5.28317 4.21996,1.75195 8.45509,3.67484 12.99405,4.4028 4.98242,0.72464 10.04721,0.20957 14.98512,-0.6736 4.42035,-1.09642 8.54739,-2.9847 12.75274,-4.69526 0.64928,-0.36606 2.59246,-1.47239 1.94784,-1.09819 -11.46229,6.65361 -45.94169,26.45311 -34.40095,19.93653 12.87443,-7.26967 25.48959,-14.99437 38.40225,-22.19591 53.01455,-29.5668 -51.13603,29.74033 -32.03972,18.57267 12.83171,-7.50407 25.66812,-15.00012 38.50218,-22.50018 -11.31819,6.56313 -22.61411,13.16481 -33.95457,19.68938 -1.50409,0.86536 2.98525,-1.77009 4.48612,-2.64104 12.84959,-7.45653 25.56314,-15.14953 38.50304,-22.44821 10.74847,-6.06261 -48.01491,28.25338 -31.95945,18.68573 4.03663,-1.97031 4.78619,-4.61004 2.44416,-8.55234 -2.15817,-3.2591 -4.45921,-6.31389 -7.46077,-8.85796 -2.89668,-2.56506 -5.78716,-5.20934 -9.44362,-6.65698 -4.19738,-1.52021 -8.59173,-2.54886 -12.92932,-3.56596 -4.94599,-0.78985 -9.83303,-2.17236 -14.88975,-1.83298 -5.71818,0.008 -11.43641,0.0272 -17.15458,0.005 -5.59404,-0.045 -11.20395,-0.0808 -16.76748,-0.73391 -5.0279,-0.71944 -9.86146,-2.12207 -14.81677,-3.17261 -5.59322,-0.7771 -11.1688,-2.15138 -16.85133,-1.69247 -5.12452,0.28714 -10.30576,0.69691 -15.07393,2.76955 -4.59725,2.07248 -9.27914,4.05266 -14.1998,5.22134 -5.087,0.88994 -10.31136,0.57906 -15.35897,1.79175 -4.46707,1.19531 -8.60597,3.36036 -13.23771,3.93826 -5.40835,0.78447 -10.89399,0.32209 -16.32688,-0.0263 -5.17917,-0.55654 -10.2446,-1.57703 -15.17867,-3.28377 -5.4454,-1.16824 -10.96571,-2.1869 -16.53984,-2.4112 -5.77632,-0.48118 -11.48579,-1.36811 -17.2052,-2.29229 -5.67165,-0.29393 -11.35619,-0.0993 -17.03364,-0.1683 -5.74202,0.0143 -11.49687,0.005 -17.2187,0.5503 -17.32663,2.13514 -40.72265,18.468 21.53911,-16.58916 -0.54001,0.24776 -1.02744,0.70024 -1.62001,0.74329 -0.52837,0.0384 -1.03169,-0.27461 -1.50306,-0.51641 -3.54978,-1.821 2.65852,-0.21847 2.92129,-0.55553 6.06459,0.0446 12.14167,0.0986 18.1793,0.73489 5.20101,0.6702 10.15366,1.89103 15.01437,3.87325 4.38822,1.33539 8.62749,3.13318 12.94762,4.66463 4.09315,1.78658 8.41058,3.00072 12.78944,3.86467 4.62215,1.31984 9.1106,3.06506 13.76638,4.28111 4.60213,1.56885 9.50864,2.38978 13.67072,5.04887 3.45298,3.20954 4.55848,7.2565 -0.2294,9.75501 -13.53064,7.92295 -31.11176,21.00405 -48.17659,26.43505 -4.59224,1.38237 -9.27852,2.10658 -14.01179,2.86273 -5.13994,0.52681 -10.26772,-0.28063 -15.31372,-1.27668 -5.17643,-1.02237 -10.33953,-1.12898 -15.61293,-0.93675 -5.64978,-0.009 -11.31012,0.0135 -16.94486,-0.45571 -4.97852,-0.55467 -9.8752,-1.48291 -14.31004,-3.94908 -3.99566,-1.77117 -7.56175,-4.00715 -10.97817,-6.73948 -3.49465,-2.55518 -6.65789,-5.44388 -9.00859,-9.12916 -2.92817,-4.34662 -4.61805,-9.2529 -4.19972,-14.56085 0.22889,-5.09863 0.43229,-10.37072 2.77646,-15.01703 10.4622,-14.78792 30.03203,-21.59783 46.89823,-28.01009 5.06875,-1.08764 10.07828,-1.71089 15.26848,-0.96695 5.05667,0.46651 10.02634,1.35933 15.01707,2.27152 5.2321,0.17744 10.49276,-0.14241 15.67017,-0.91826 4.74259,-0.91676 9.328,-2.48115 14.14596,-3.01568 4.58155,-1.07238 8.91331,-2.97004 13.60166,-3.60322 5.33783,-1.07948 10.69107,-1.14349 16.12847,-0.93088 5.41416,0.13359 10.95183,0.21446 16.09049,2.12973 4.46529,2.1772 8.08075,5.48038 9.79346,10.26358 1.15667,5.54264 1.09557,11.06653 0.96239,16.71838 0.007,5.56063 -0.003,11.12479 0.268,16.68029 0.31791,4.97 0.88817,9.90989 2.15824,14.73971 0.95368,5.13607 0.45777,10.41846 1.4556,15.56862 0.93237,4.81138 2.61991,9.44296 2.84423,14.37628 0.89201,5.2463 2.39753,10.38721 1.87803,15.77155 0.007,5.71628 0.0228,11.43261 -0.003,17.14887 -0.0451,5.53492 -0.0881,11.08088 -0.64299,16.59338 -0.60448,4.98208 -2.14259,9.81791 -2.22222,14.81934 -1e-5,5.71426 -3e-5,11.42853 -8e-5,17.14279 -5e-5,5.71428 -1.6e-4,11.42857 7e-5,17.14285 4.1e-4,5.71584 9.3e-4,11.43167 0.005,17.14751 0.005,5.72056 0.0144,11.44112 0.0166,17.16168 -0.006,5.6444 0.002,11.29199 -0.26119,16.93165 -0.30621,5.07205 -0.78861,10.14234 -2.12463,15.06444 -1.16211,5.40896 -0.14695,11.07407 -0.47231,16.57298 0.002,5.67608 0.0186,11.35364 -0.1492,17.02785 -0.20909,5.21493 -0.50788,10.45205 -1.70412,15.55162 -1.24324,5.28714 -1.15967,10.54846 -1.02797,15.97634 -0.004,5.72015 -0.011,11.4403 -0.0192,17.16045 -0.004,5.62072 -0.0241,11.24304 0.14557,16.86186 0.20888,4.97862 0.51091,9.98046 1.78213,14.82281 1.21677,4.83641 1.4796,9.72027 2.44395,14.60495 1.23846,4.53369 2.58268,8.98461 3.47099,13.60471 1.47277,4.74706 2.15074,9.58799 3.16173,14.4522 0.92589,5.63496 0.27885,11.38878 0.46591,17.08212 -0.0198,5.60118 -0.0289,11.20839 -0.4116,16.79923 -0.42323,4.94134 -1.17905,9.81604 -2.44404,14.61828 -0.036,5.54326 -0.0602,11.09934 -0.63097,16.61917 -0.65902,5.1425 -2.27495,10.01395 -2.95695,15.11634 -0.77549,5.87486 -2.36711,11.52608 -3.45402,17.32403 -0.9394,5.31401 -1.99862,10.56757 -2.80879,15.89579 -6.09951,17.55316 -31.24663,29.88763 -48.18434,22.32862 -3.70887,-2.26402 -6.4094,-5.56752 -9.95164,-8.06518 -2.92056,-3.0046 -5.68605,-6.2094 -7.93599,-9.75107 -2.53269,-3.69916 -5.10206,-7.45009 -6.67912,-11.67194 -1.1692,-5.53902 -1.13383,-11.06363 -0.98062,-16.71516 0.0411,-5.53678 0.0773,-11.08451 0.62075,-16.59986 0.60283,-5.03201 2.12513,-9.88935 2.36522,-14.92863 0.23871,-5.76471 0.61893,-11.54967 2.00933,-17.17202 1.25551,-4.88539 2.03403,-9.79739 3.09793,-14.73069 1.16631,-5.40148 0.15828,-11.06165 0.48912,-16.55394 -0.001,-5.7137 -0.003,-11.4274 -0.0102,-17.14109 -0.007,-5.72225 -0.0229,-11.44456 0.005,-17.16677 0.0501,-5.78858 0.11584,-11.58627 0.67801,-17.35265 0.63235,-5.659 2.04802,-11.23441 2.18168,-16.91425 -0.004,-5.7203 -0.0105,-11.4406 -0.0173,-17.1609 -0.002,-5.67642 -0.0185,-11.35429 0.14801,-17.02888 0.20758,-5.21832 0.50448,-10.45847 1.69154,-15.56327 1.23086,-5.28244 1.13834,-10.53646 1.05336,-15.95678 0.0819,-5.45156 0.17787,-10.92037 0.92884,-16.32961 0.81405,-5.05483 2.45285,-9.93438 1.89243,-15.12162 -0.002,-5.67609 -0.0185,-11.35365 0.14936,-17.02787 0.20904,-5.21444 0.50787,-10.45094 1.70196,-15.55042 1.23997,-5.28611 1.15046,-10.54503 1.00869,-15.97089 -0.006,-5.73464 -0.024,-11.46993 0.0821,-17.20387 0.15133,-5.81814 0.39631,-11.6478 1.34317,-17.40099 0.94907,-5.61084 1.95481,-11.10134 1.43912,-16.83443 -0.007,-5.71549 -0.0238,-11.43103 -0.003,-17.14652 0.0403,-5.53873 0.0745,-11.08891 0.62731,-16.60551 0.61989,-5.07 2.17317,-9.94385 2.50135,-15.01522 0.34096,-5.77176 0.91272,-11.52864 2.12625,-17.19145 4.39134,-23.54052 -17.37246,0.15331 38.46732,-30.32113 0.0893,-0.0487 -0.0392,0.19959 -0.0589,0.29938 -0.22745,4.95706 -0.036,9.92345 -0.0998,14.88354 -1e-4,5.71341 -3.2e-4,11.42682 3.1e-4,17.14023 10e-4,5.70001 0.002,11.40002 0.0114,17.10002 0.01,5.71246 0.0306,11.42491 0.0264,17.13738 -0.0277,6.59872 -0.0972,13.20425 -0.66785,19.78299 -0.90822,9.57974 -2.36002,19.08706 -4.21281,28.53051 0,0 -38.21218,18.429 -38.21218,18.429 z"
       inkscape:connector-curvature="0" />
    <path
       style="fill:#ffffff;fill-opacity:1;stroke:#00fb00;stroke-opacity:1"
       id="path3103"
       d="m 388.97117,785.23064 c -2.88818,-9.40859 -5.18987,-18.96661 -6.70711,-28.68911 -1.38289,-5.7203 -2.77677,-11.40295 -3.4835,-17.25237 -0.54857,-5.58031 -0.55941,-11.19391 -0.58512,-16.79541 -0.17604,-5.4976 0.33749,-11.03202 -0.21055,-16.51016 -1.0739,-4.98035 -1.82325,-9.99595 -2.23601,-15.07225 -0.36857,-5.63957 -0.3785,-11.29414 -0.39806,-16.94322 -0.007,-5.72077 0.004,-11.44155 0.01,-17.16232 0.005,-5.71578 0.006,-11.43157 0.007,-17.14735 4.3e-4,-5.71428 3.1e-4,-11.42856 2.7e-4,-17.14284 0.0885,-5.68235 -0.20411,-11.37594 0.19359,-17.04769 1.01225,-4.89592 1.64994,-9.84803 2.43941,-14.78011 1.37999,-4.69416 2.24208,-9.46264 2.69349,-14.32789 -0.0783,-5.19656 0.95417,-10.21431 1.9428,-15.27794 0.95441,-5.20337 1.12117,-10.50048 1.24882,-15.77526 0.0944,-5.68587 0.0757,-11.37284 0.0699,-17.05927 0.47539,-5.14811 -0.67674,-10.08289 -1.58891,-15.09694 -0.9223,-5.39985 -1.10225,-10.88271 -1.23112,-16.34725 -0.0934,-5.70998 -0.0756,-11.42103 -0.0701,-17.13155 0.008,-5.7184 0.012,-11.4368 0.0144,-17.15521 0.33124,-5.05385 1.61719,-9.9667 2.2269,-14.993 0.56986,-5.33322 0.31012,-10.69378 1.23817,-15.98482 1.19357,-4.92714 1.72042,-9.95342 2.02012,-15.002 -0.0691,-5.11105 1.36813,-10.03511 2.16998,-15.04069 0.7435,-5.34745 0.82772,-10.75461 0.90471,-16.14385 0.24704,-5.00264 -1.19652,-9.8544 -1.92827,-14.7662 -0.62748,-5.51968 -2.05309,-10.89305 -2.84888,-16.3918 -0.73884,-5.75678 -0.84502,-11.56616 -0.9206,-17.36159 -0.65244,-4.89895 -1.7255,-9.71307 -2.27161,-14.63349 -0.29151,-3.63965 -0.16758,-1.81121 -0.37073,-5.4854 0,0 37.75719,-19.47241 37.75719,-19.47241 l 0,0 c 0.15168,3.54406 0.0571,1.78454 0.28224,5.27866 0.47081,5.06103 1.45622,10.0104 2.41872,14.99557 0.0421,5.63489 0.0842,11.28205 0.67843,16.89178 0.69448,5.51425 2.14383,10.86286 2.87745,16.35312 0.67599,5.13288 2.26073,10.16026 2.18682,15.35259 -0.0416,5.54086 -0.0786,11.09275 -0.62522,16.61193 -0.59738,4.96182 -2.10288,9.7474 -2.36421,14.71083 -0.20356,5.22124 -0.49041,10.46688 -1.6913,15.57216 -1.23976,5.16429 -1.23878,10.3107 -1.44806,15.61423 -0.43134,4.94151 -1.21016,9.81064 -2.45519,14.61744 -0.002,5.71934 -0.005,11.43869 -0.0133,17.15803 -0.007,5.68246 -0.0253,11.36519 0.0362,17.04743 0.0879,5.25782 0.18753,10.53486 0.96856,15.74524 0.8927,5.24727 2.39938,10.38902 1.88093,15.77452 0.008,5.71084 0.0263,11.42187 -0.024,17.13257 -0.0771,5.45855 -0.16417,10.93478 -0.90988,16.35176 -0.80573,4.99087 -2.46305,9.79284 -2.15459,14.91039 -0.30812,5.02782 -0.74961,10.0846 -2.37522,14.88912 -1.4883,4.65158 -1.03297,9.75962 -2.63196,14.43419 -1.16629,5.40164 -0.15809,11.06191 -0.48977,16.55433 5e-5,5.71442 1.7e-4,11.42884 -1.1e-4,17.14325 -4.5e-4,5.71687 -0.001,11.43373 -0.005,17.15059 -0.005,5.71627 -0.0149,11.43254 -0.0153,17.14881 0.008,5.55514 0.002,11.11397 0.2823,16.6636 0.3281,5.00046 0.93226,9.96275 2.13379,14.83821 0.90959,5.61718 0.24032,11.34596 0.43012,17.01949 0.0102,5.46422 -0.005,10.93633 0.39777,16.38908 0.5623,5.84222 1.84483,11.52256 3.2377,17.21866 1.24074,9.50684 3.21225,18.91855 6.45649,27.96172 0,0 -37.14994,20.46009 -37.14994,20.46009 z"
       inkscape:connector-curvature="0" />
    <path
       style="fill:#ffffff;fill-opacity:1;stroke:#00fb00;stroke-opacity:1"
       id="path3105"
       d="m 243.31696,242.06635 c 7.93151,3.99988 15.81479,8.07083 23.9658,11.62163 5.74938,2.45365 11.91057,3.07053 18.08198,3.34226 5.67545,0.14504 11.3537,0.0739 17.03019,0.044 5.49253,-0.0523 10.98593,0.003 16.47813,-0.0745 13.17422,-7.2602 11.43091,-6.31616 -34.65814,20.47598 -0.61208,0.35581 -4.08319,-1.34241 -4.52204,-1.55549 -4.35622,-1.52602 -8.84203,-2.16169 -13.24443,-3.55708 -4.79644,-1.37167 -9.80307,-1.56518 -14.75647,-1.73676 -4.85373,-0.64209 -9.13784,-2.80371 -13.71796,-4.29755 -4.81479,-1.25877 -9.8237,-1.34817 -14.76886,-1.46974 -5.4686,0.25336 -11.14159,-0.79301 -16.48702,0.54428 -12.59325,3.81661 -42.55319,22.95412 30.74164,-18.06572 0.52809,-0.29555 -1.02938,0.65899 -1.44567,1.09823 -1.10402,1.1649 -1.2588,2.05268 -1.81648,3.53149 -1.28069,5.15457 -0.90632,10.50449 -1.29052,15.75735 -0.94508,4.83277 -1.4449,9.76254 -2.76282,14.51252 -0.87087,3.86409 -2.58751,7.3914 -4.42917,10.86659 0,0 -38.73756,17.52218 -38.73756,17.52218 l 0,0 c 1.60259,-3.384 3.89581,-6.50134 4.71565,-10.18684 1.47909,-4.57761 2.12545,-9.20287 3.08348,-13.92618 1.1114,-5.30771 0.0704,-10.84835 1.04147,-16.2091 3.30223,-19.22466 26.47553,-27.56974 44.94438,-30.35363 5.63113,-0.21379 11.27216,-0.0847 16.90365,0.072 5.2603,0.27107 10.56996,0.65771 15.56236,2.48268 4.19058,1.59576 8.42097,3.10785 12.95685,3.32366 5.21117,0.3401 10.42278,0.89193 15.40406,2.56197 4.52404,1.32919 9.2979,1.81537 13.5648,3.96292 21.61953,8.62252 -10.77477,30.43321 -30.70728,29.66768 -5.46521,-0.06 -10.93104,0.0239 -16.3964,0.0289 -5.73536,0.0205 -11.47886,0.084 -17.20505,-0.2983 -6.4985,-0.59711 -12.88652,-1.81933 -18.82383,-4.66174 -8.11169,-3.78558 -16.02052,-7.97313 -24.15616,-11.69789 0,0 35.45142,-23.32578 35.45142,-23.32578 z"
       inkscape:connector-curvature="0" />
    <path
       style="fill:#ffffff;fill-opacity:1;stroke:#00fb00;stroke-opacity:1"
       id="path3107"
       d="m 494.52664,308.46247 c 8.97138,-0.38065 17.82626,0.96469 26.71216,1.94522 5.61588,0.51744 10.92129,2.45771 16.52391,3.19915 5.42437,1.08466 10.5503,-0.10594 15.87382,-0.99419 5.48957,-0.91307 11.05646,-1.01488 16.59977,-1.29628 1.38082,-0.11657 0.97331,0.19184 1.49847,-0.32437 -12.01939,8.43232 -23.8294,17.17126 -36.05817,25.29696 -0.32279,0.21449 -6.18148,-0.0225 -6.80926,-0.0236 -5.31624,-0.6351 -10.20743,0.60649 -15.33767,1.6512 -5.21541,1.09592 -10.23661,1.15029 -15.41093,0.0406 -4.93279,-1.10266 -9.98554,-1.37425 -15.01953,-1.56522 -5.6263,-0.15716 -11.25557,-0.14204 -16.88353,-0.14045 -5.71976,0.006 -11.43952,0.0127 -17.15929,0.0161 -5.6598,-0.24877 -11.42292,0.6001 -16.99098,-0.55892 -4.85792,-1.33096 -9.85684,-1.81107 -14.86619,-2.09285 -4.5089,0.19876 -9.77986,0.80658 -13.92921,2.73726 -4.35863,2.23887 -9.43336,1.59844 -13.91283,3.22251 -4.75683,1.67262 -9.80584,1.99881 -14.79819,2.2556 -5.63352,0.21064 -11.27239,0.1866 -16.90885,0.18237 -5.72171,-0.0102 -11.44342,-0.0193 -17.16514,-0.0242 -5.71601,-0.004 -11.43202,-0.004 -17.14803,-0.005 -5.71428,-10e-5 -11.42856,3e-5 -17.14284,9e-5 -5.71426,5e-5 -11.42852,7e-5 -17.14278,7e-5 -5.71428,1e-5 -11.42856,1e-5 -17.14285,1e-5 -5.15565,-0.0702 -10.12882,-1.69121 -15.26178,-2.29667 -5.22782,0.11548 -10.11594,-1.12119 -15.16882,-2.20434 -5.07904,-0.95151 -10.25898,-1.07161 -15.41,-1.18142 -5.66494,-0.0795 -11.33069,-0.0577 -16.99601,-0.0497 -5.72004,0.01 -11.44009,0.0138 -17.16013,0.0162 -5.15676,-0.068 -10.13127,-1.68927 -15.26515,-2.29482 0,0 34.73322,-24.50772 34.73322,-24.50772 l 0,0 c 4.94447,0.79082 9.8294,2.17563 14.88486,1.84089 5.71972,-0.004 11.43943,-0.0106 17.15915,-0.0173 5.69556,-0.002 11.39267,-0.019 17.08626,0.15369 5.33613,0.22063 10.6872,0.56212 15.90379,1.79051 4.94996,1.10587 9.92532,1.44635 14.96611,1.94644 4.94391,0.79096 9.82802,2.17625 14.88293,1.84434 5.71428,0 11.42856,1e-5 17.14285,-10e-6 5.71425,-1e-5 11.4285,-4e-5 17.14275,-1e-4 5.71435,-6e-5 11.4287,-2.1e-4 17.14305,2.5e-4 5.71668,7.2e-4 11.43337,0.002 17.15006,0.008 5.72003,0.007 11.44006,0.0206 17.1601,0.0157 5.58302,-0.0187 11.17433,-0.0181 16.74416,-0.45108 4.89809,-0.49006 9.68245,-1.42491 14.39693,-2.85951 4.70884,-0.71285 9.31064,-1.69883 13.76392,-3.43742 4.91396,-0.93392 9.81359,-2.12585 14.851,-1.40632 5.06356,0.45993 10.04198,1.33735 15.0316,2.29489 5.53307,0.28746 11.08108,0.0355 16.6195,0.11602 5.72123,-0.005 11.44246,-0.0138 17.16369,-0.0105 5.67479,0.0127 11.35299,0.0159 17.02212,0.3014 5.15392,0.32715 10.27476,0.90766 15.34259,1.92679 4.86799,0.54716 9.71675,-0.31226 14.49025,-1.27645 5.24299,-1.03849 10.49193,-1.10418 15.82955,-0.96946 1.13498,-0.003 3.70735,-0.0115 4.88166,-0.0103 0.68629,6.8e-4 2.58818,-0.42918 2.05886,0.008 -68.34691,56.4047 -18.02401,24.9718 -34.28188,25.20651 -5.44109,0.19667 -10.86681,0.6973 -16.23367,1.63492 -5.58321,0.85787 -11.11876,1.03867 -16.70052,-0.076 -5.4401,-1.02144 -10.73237,-2.79038 -16.28834,-3.13831 -8.8025,-1.07294 -17.60669,-2.06359 -26.49663,-1.49683 0,0 34.33011,-24.94228 34.33011,-24.94228 z"
       inkscape:connector-curvature="0" />
    <path
       style="fill:#ffffff;fill-opacity:1;stroke:#00fb00;stroke-opacity:1"
       id="path3109"
       d="m 225.95521,734.17676 c 9.42188,0.14437 18.84558,0.077 28.26811,0.0416 6.54667,-0.0276 13.09339,-0.0409 19.64012,-0.0474 5.70899,-0.004 11.41798,-0.004 17.12697,-0.004 5.53593,-0.57825 10.71641,0.52491 16.07898,1.62268 5.09384,0.93832 10.28337,1.07649 15.44731,1.19328 5.66086,0.0863 11.32266,0.0662 16.98397,0.0592 5.65302,-0.20576 11.10173,-0.15662 16.60951,1.1185 4.89976,1.3829 10.07354,0.89109 14.95017,2.20437 4.72781,1.49409 9.65743,1.92092 14.578,2.19286 5.5695,0.22683 11.14521,0.20758 16.7182,0.20706 5.71867,-0.007 11.43732,-0.0165 17.15599,-0.0213 5.71674,-0.004 11.43349,-0.004 17.15023,-0.005 5.65825,0.25135 11.41975,-0.59684 16.98621,0.56226 4.85783,1.33111 9.85673,1.8111 14.86601,2.09285 5.56449,0.23554 11.13557,0.22224 16.70389,0.2251 5.15671,0.0689 10.13467,1.67745 15.26948,2.27799 5.38231,0.50852 10.79427,0.53349 16.19573,0.56965 5.7027,0.019 11.40545,0.004 17.10816,-0.003 5.55278,-0.58438 10.75101,0.51299 16.13105,1.61211 5.20106,0.7034 9.0145,0.71516 11.23325,6.03776 0.46252,4.02955 -1.15994,7.93839 -2.799,11.54144 -2.16109,3.60141 -4.99193,6.54771 -6.51171,10.50034 -1.69923,4.34852 -3.07229,8.69058 -3.74885,13.31706 -0.51483,2.79227 -1.03652,6.90647 -3.84555,8.52255 -37.86478,21.78417 -24.11867,19.96634 -41.22526,21.81738 -5.51223,0.59875 -10.81664,0.41357 -16.18602,-0.86712 -4.969,-1.21918 -10.08307,-1.50565 -15.17448,-1.70391 -5.6255,-0.15833 -11.25403,-0.1389 -16.88118,-0.13519 -5.71892,0.008 -11.43784,0.0149 -17.15677,0.0186 -5.71592,0.003 -11.43185,0.003 -17.14778,0.003 -5.71432,7e-5 -11.42864,-3e-5 -17.14295,-8e-5 -5.71427,-4e-5 -11.42853,-5e-5 -17.14279,-5e-5 -5.71428,-10e-6 -11.42857,-10e-6 -17.14285,-10e-6 -5.71429,0 -11.42857,0 -17.14286,0 -5.71429,0 -11.42857,0 -17.14286,0 -5.71428,0 -11.42857,0 -17.14285,0 -4.79731,1.42828 -9.71197,2.13636 -14.68751,2.52689 -5.40655,0.88105 -10.44889,-0.20572 -15.69952,-1.26928 -5.09835,-0.93756 -10.29117,-1.08666 -15.45963,-1.20898 -5.66312,-0.0918 -11.3273,-0.0724 -16.99096,-0.066 -5.81057,-0.17546 -11.5092,-1.64703 -17.30848,-2.26573 -5.65502,-0.51253 -11.33753,-0.55168 -17.01116,-0.58849 -4.93592,-0.94352 -9.71274,-1.99288 -14.41928,-3.70925 -4.58554,-0.81633 -8.89601,-2.39433 -13.38739,-3.57255 -3.86879,-2.66822 -8.61052,-2.78517 -12.83628,-4.41232 -5.04158,-2.97266 -7.39732,-7.79907 -8.91016,-13.22891 -1.23767,-5.67781 -1.26772,-11.51544 -1.3254,-17.29858 -0.24514,-5.2207 0.95336,-10.34131 2.13077,-15.39026 1.30958,-4.32976 2.8093,-8.55479 5.42485,-12.27183 12.03199,-11.7436 20.15142,-13.25711 41.17789,-25.10492 1.72906,-0.97428 4.62185,-0.86468 6.70729,-1.7916 4.82641,-1.53534 9.46778,-3.34894 14.46788,-4.30943 5.65689,-0.8979 11.39734,-0.96306 17.11108,-1.02642 6.65729,-0.36408 10.43341,0.043 14.21648,5.90385 2.62095,5.16387 1.44549,9.49959 -2.64044,13.29912 -14.88813,11.43963 -32.50641,21.30761 -50.17613,28.70256 -0.94433,0.30359 -1.9202,0.52253 -2.833,0.91077 -1.62225,0.68998 -6.25706,3.24619 -4.73165,2.3625 10.77705,-6.24331 43.30275,-24.63419 32.49741,-18.43995 -12.81591,7.34681 -25.65716,14.64934 -38.48574,21.97401 -3.89778,2.84369 -5.64602,-2.96527 -6.82187,-5.85611 -1.9521,-3.33217 -4.38598,-6.15484 -5.66427,-9.84892 -0.2551,-2.10887 -0.26777,-6.22687 1.96412,-7.56655 36.76571,-22.0684 23.8037,-19.86679 40.54336,-22.33801 5.42696,-0.60709 10.89864,-0.57039 16.35154,-0.57535 5.74842,0.0157 11.49679,0.043 17.24521,0.0571 4.80733,-1.41143 9.72671,-2.12226 14.70795,-2.51248 5.56693,-0.34063 11.14716,-0.33988 16.72224,-0.3532 5.71777,-0.002 11.43553,0.01 17.1533,0.0158 5.71676,0.005 11.43353,0.006 17.15029,0.007 5.71439,3.7e-4 11.42878,2.3e-4 17.14317,1.8e-4 5.71425,-6e-5 11.42851,-8e-5 17.14276,-10e-5 5.71428,-10e-6 11.42856,-10e-6 17.14285,-10e-6 5.71428,10e-6 11.42857,10e-6 17.14285,10e-6 5.71429,0 11.42858,0 17.14286,0 5.15565,0.0702 10.12882,1.69121 15.26178,2.29666 5.37954,0.51242 10.7892,0.53754 16.18819,0.574 5.70259,0.0191 11.40523,0.004 17.10783,-0.003 5.71843,-0.007 11.43686,-0.009 17.15529,-0.01 5.71473,-7.4e-4 11.42946,-6.1e-4 17.14419,-5.6e-4 5.36695,-0.56293 10.42824,1.16733 15.65823,2.00654 4.86968,0.42929 9.82796,1.38487 14.25194,3.52224 0.67474,0.29457 1.38554,0.51749 2.02422,0.88372 5.95557,3.41498 -1.71363,-0.43299 3.69422,2.48738 1.88156,1.01608 3.86056,1.48006 5.75319,2.5095 4.22314,1.75331 7.29828,5.48935 9.51089,9.38337 2.28321,4.51461 1.65756,8.82216 -0.32877,13.24176 -2.02909,3.98068 -5.71606,6.23825 -8.91894,9.1316 -3.62344,3.22591 -5.72399,6.91165 -7.2258,11.44993 -7.76895,17.25468 -29.45836,26.28234 -47.8769,27.46036 -5.58605,-0.01 -11.29344,0.71051 -16.78465,-0.46552 -4.87549,-1.06278 -9.66532,-1.80409 -14.40717,-3.34376 -4.45677,-1.07978 -9.01155,-2.32768 -13.066,-4.51479 -4.07612,-2.21735 -8.68054,-2.59539 -13.21903,-2.90154 -5.54204,-0.26237 -11.09274,-0.22424 -16.63936,-0.21594 -5.72369,0.0157 -11.44739,0.0276 -17.17111,0.034 -5.71745,0.005 -11.43491,0.005 -17.15237,0.006 -5.36707,0.56311 -10.42842,-1.1673 -15.6585,-2.00661 -5.20211,-0.44053 -10.23199,-0.7088 -15.29504,-1.9943 -4.90758,-1.21416 -9.96891,-1.44669 -14.99842,-1.62325 -5.6266,-0.13958 -11.25561,-0.11788 -16.88348,-0.11231 -5.71984,0.009 -11.43968,0.0156 -17.15952,0.0191 -5.71598,0.003 -11.43195,0.003 -17.14793,0.003 -5.7143,4e-5 -11.42861,-6e-5 -17.14292,-1e-4 -5.71426,-5e-5 -11.42852,-5e-5 -17.14278,-6e-5 -5.71428,0 -11.42856,0 -17.14285,0 -5.1281,-0.25319 -10.51304,-1.25187 -15.41628,-2.86879 -5.20577,-1.7704 -10.66612,-2.32473 -16.11918,-2.65746 -5.61834,-0.3567 -11.23983,0.6542 -16.36753,-2.01059 -4.21624,-3.6441 -4.09257,-6.6621 -0.89385,-10.74645 22.87491,-16.30565 29.56249,-22.98349 50.63093,-23.7858 5.71754,-0.1389 11.43757,-0.091 17.15619,-0.0716 5.73014,0.0218 11.46031,0.03 17.19048,0.0348 5.71525,0.004 11.43049,0.003 17.14573,0.003 5.65799,0.25136 11.41916,-0.59701 16.98539,0.5619 4.79782,1.55685 9.94511,1.25421 14.72922,2.69139 4.65035,1.58919 9.53707,2.00711 14.40744,2.28209 5.39874,-0.36863 10.45906,0.76196 15.68804,1.82921 4.84009,0.34217 9.25182,2.30301 13.99098,3.19582 5.25071,0.92979 10.60672,0.39179 15.82137,1.43151 5.59326,1.27446 11.29711,1.80751 17.01296,2.1055 5.69001,0.22604 11.38592,0.21139 17.07935,0.21192 5.7136,-0.006 11.4272,-0.015 17.1408,-0.0196 5.71458,-0.004 11.42916,-0.004 17.14374,-0.005 5.71431,-1.5e-4 11.42863,-3e-5 17.14294,2e-5 5.71429,5e-5 11.42857,6e-5 17.14285,7e-5 5.71429,10e-6 11.42857,10e-6 17.14286,10e-6 5.15564,0.0702 10.12882,1.69121 15.26178,2.29666 4.51675,0.56818 9.80651,-0.4465 13.42363,2.86678 6.87415,16.60822 2.20561,2.60444 -37.2728,25.28995 -2.55972,1.4709 -5.675,1.91757 -8.53486,2.37079 -5.47353,0.67113 -10.99933,0.70333 -16.50583,0.71378 -6.44944,0.0114 -12.8989,0.003 -19.34834,-8.7e-4 -5.16014,0.10578 -10.1286,1.73434 -15.28373,2.31423 -5.48256,0.49654 -10.99282,0.51999 -16.49328,0.55328 -6.9246,0.001 -13.84928,-0.0281 -20.77387,-0.053 -7.89865,-0.0228 -15.79727,-0.008 -23.69591,0.0104 -6.1436,0.0157 -12.28722,0.0218 -18.43084,0.025 -5.70751,0.002 -11.41502,0.002 -17.12253,0.002 -4.9628,-0.47197 -9.30004,-2.67586 -13.9398,-4.20363 -0.71511,-0.16825 -1.45289,-0.25937 -2.14534,-0.50476 -1.44371,-0.51162 -2.76063,-1.34117 -4.20178,-1.85996 -2.19244,-0.78924 -4.27806,-1.13085 -6.41935,-2.09528 -4.58583,-1.5202 -9.19435,-3.05353 -13.89867,-4.20809 -4.76822,-1.4668 -9.91439,-2.40163 -14.52418,-4.34875 -4.61813,-1.36851 -7.56636,-4.67683 -10.61275,-8.13721 -3.0957,-3.56473 -5.31964,-7.25027 -6.63629,-11.80382 -1.33725,-5.21139 -0.92541,-10.62537 -1.54776,-15.91659 -0.11787,-4.60978 -3.48327,-5.49609 -6.27956,-8.30726 -9.46847,-18.61567 28.44179,-26.41884 45.21051,-26.61722 5.56946,-0.20103 10.93081,-0.0311 16.34043,1.27309 4.74499,0.58684 8.98314,2.72943 13.6418,3.70323 5.09421,0.56041 10.03543,0.83056 15.00917,2.08863 4.9137,1.20407 9.97922,1.43074 15.01264,1.60418 5.62837,0.13671 11.25906,0.11494 16.88864,0.10922 5.71987,-0.009 11.43974,-0.0155 17.15961,-0.019 5.71595,-0.003 11.4319,-0.003 17.14785,-0.003 5.36702,-0.56303 10.42835,1.16729 15.6584,2.00654 5.24707,0.70881 10.55067,0.77632 15.8363,0.84529 5.00169,-0.13869 9.82416,-1.73173 14.83277,-2.30135 2.68595,-0.26957 5.38402,-0.35754 8.08006,-0.45218 0,0 -34.24091,25.14576 -34.24091,25.14576 l 0,0 c -2.63282,0.17768 -5.26854,0.35208 -7.87743,0.76972 -5.04643,0.8479 -10.03393,2.22456 -15.20543,1.73316 -5.43655,-0.14796 -10.89152,-0.36113 -16.25283,-1.35129 -5.04156,-0.96151 -10.01162,-1.88156 -15.18522,-1.43555 -5.71533,4e-4 -11.43065,9.1e-4 -17.14597,0.005 -5.72056,0.005 -11.44111,0.0143 -17.16167,0.0166 -5.67478,-0.006 -11.35288,0.003 -17.02277,-0.26468 -5.21364,-0.3214 -10.4106,-0.86787 -15.48105,-2.18627 -4.98169,-0.99932 -10.12521,-0.81315 -15.05618,-2.15139 -4.50161,-1.27063 -8.8716,-2.96263 -13.54295,-3.57759 -5.18527,-0.88913 -10.4676,-0.5495 -15.70697,-0.43535 -1.88364,0.14014 -3.19577,0.17934 -5.04635,0.54285 -0.77006,0.15127 -2.94223,1.00415 -2.28164,0.5805 33.63388,-21.57017 44.04567,-14.26573 32.71567,-21.96865 3.46205,3.18128 7.18745,5.55435 7.54207,10.78993 0.891,5.11512 0.30895,10.36006 1.34018,15.47565 0.97377,4.01009 3.00403,7.01179 5.71081,10.10316 2.60622,3.01802 5.46781,5.26532 9.42051,6.34094 4.75018,1.39053 9.44892,2.95443 14.27064,4.07999 4.7787,1.38037 9.59451,2.7022 14.21705,4.55016 4.27591,1.3527 8.43289,2.97394 12.6956,4.36169 4.20757,1.60141 8.45983,3.0917 13.03748,3.06273 5.70592,-1.1e-4 11.41184,-4.9e-4 17.11775,0.002 6.12025,0.003 12.24051,0.009 18.36074,0.027 7.88044,0.0219 15.76085,0.0417 23.64133,0.0326 6.95915,-0.0132 13.91852,-0.002 20.87731,-0.0875 5.4123,-0.0933 10.8426,-0.20831 16.20652,-1.00713 5.17012,-0.85518 10.28318,-2.20988 15.57697,-1.79598 6.43281,0.0156 12.86623,0.0507 19.29859,-0.0453 5.38789,-0.14219 10.82423,-0.24193 16.10539,-1.43689 2.15723,-0.57148 4.23557,-1.33926 6.37871,-1.94486 0.70054,-0.19796 2.73525,-0.90021 2.12523,-0.50294 -34.46577,22.4448 -42.42389,10.68947 -32.64867,23.41955 -3.94379,0.11 -8.10847,-1.29533 -12.09013,-1.28401 -4.94391,-0.79096 -9.82802,-2.17625 -14.88293,-1.84434 -5.71429,0 -11.42857,0 -17.14286,-1e-5 -5.71429,-2e-5 -11.42858,-4e-5 -17.14287,-10e-5 -5.71423,-4e-5 -11.42846,-1.7e-4 -17.14269,3.3e-4 -5.7139,7.3e-4 -11.42779,0.002 -17.14167,0.007 -5.71605,0.006 -11.43211,0.0184 -17.14816,0.009 -5.74815,-0.0233 -11.50174,-0.0452 -17.23929,-0.43599 -5.77831,-0.47129 -11.49344,-1.32966 -17.19809,-2.35702 -5.36315,-0.41707 -10.78862,-0.4192 -16.05482,-1.66155 -4.63585,-1.15598 -9.18397,-2.58701 -13.95267,-3.14625 -5.0855,-1.04049 -10.17297,-1.2242 -15.35461,-1.41385 -5.02413,-0.48317 -9.96009,-1.36111 -14.80958,-2.78661 -4.83908,-0.74157 -9.68416,-1.40423 -14.48491,-2.37981 -5.53182,-0.2878 -11.07861,-0.0365 -16.6158,-0.12114 -5.71603,-3.9e-4 -11.43207,-7.2e-4 -17.14809,-0.007 -5.73076,-0.008 -11.46149,-0.023 -17.19222,-0.04 -5.66818,-0.007 -11.34395,-0.0538 -17.00318,0.31492 -17.5071,1.63443 -37.44662,18.2939 23.06394,-17.42838 -0.91505,0.48435 -1.57482,1.38622 -2.51127,1.82777 -0.87013,0.41028 -3.01203,0.0542 -0.73208,1.25154 5.07831,1.19916 10.41896,0.27826 15.57345,1.01499 5.6377,0.56734 11.19565,1.55736 16.60347,3.29347 4.84924,1.05081 9.72852,2.23063 14.72843,1.95574 5.71428,0 11.42857,0 17.14285,0 5.71427,1e-5 11.42854,3e-5 17.14281,8e-5 5.71425,5e-5 11.4285,1.7e-4 17.14276,-7e-5 5.71534,-4.1e-4 11.43068,-9.3e-4 17.14601,-0.005 5.72059,-0.005 11.44117,-0.0144 17.16175,-0.0165 5.67378,0.006 11.35099,-0.002 17.0197,0.27023 5.20839,0.32612 10.39815,0.88261 15.46319,2.20085 5.00839,0.99327 10.15367,0.80684 15.16693,1.82945 5.04154,0.96155 10.01157,1.88166 15.18518,1.43542 5.71629,-7.9e-4 11.43258,-0.002 17.14887,-0.01 5.7255,-0.009 11.45098,-0.0266 17.17649,-0.0279 5.63647,0.0149 11.2858,-8.5e-4 16.90307,0.52664 4.91823,0.61047 9.70614,1.65685 14.0969,4.06642 4.16067,1.60938 8.38528,2.95119 12.71482,4.02835 4.57366,1.32095 9.33743,1.8494 13.99492,2.81117 5.36775,0.29739 10.78321,0.14903 16.12635,-0.4397 1.79205,-0.33918 2.97759,-0.45774 4.65756,-1.17844 0.66534,-0.28543 2.52348,-1.4201 1.90159,-1.04943 -76.3486,45.5062 -40.44471,26.88766 -31.35171,18.06543 2.03447,-4.45425 2.26358,-9.7052 6.6201,-12.83926 2.97364,-4.08481 6.11799,-4.97558 9.08473,-8.58723 2.53024,-2.39322 3.98895,-5.65303 2.48128,-9.02949 -1.8859,-3.32256 -4.58563,-5.82048 -8.1705,-7.22095 -3.89774,-1.68164 -7.44447,-3.89381 -11.29875,-5.63474 -4.48474,-1.41105 -9.03879,-2.28483 -13.7117,-2.79984 -5.04155,-0.96148 -10.01162,-1.88151 -15.18521,-1.43573 -5.71449,2e-5 -11.42898,-4e-5 -17.14347,0.001 -5.71756,0.002 -11.43512,0.005 -17.15268,0.0126 -5.71457,0.006 -11.42939,0.0238 -17.14373,-0.0376 -5.52111,-0.0907 -11.05902,-0.20562 -16.53447,-0.98906 -4.94391,-0.79096 -9.82802,-2.17625 -14.88293,-1.84434 -5.71428,0 -11.42857,0 -17.14285,0 -5.71429,0 -11.42858,0 -17.14286,0 -5.71428,0 -11.42856,0 -17.14284,2e-5 -5.71425,2e-5 -11.4285,6e-5 -17.14275,1.1e-4 -5.71452,2e-5 -11.42903,1.3e-4 -17.14354,-8e-4 -5.71743,-0.001 -11.43487,-0.003 -17.15231,-0.0101 -5.71259,-0.007 -11.42527,-0.022 -17.13781,0.0102 -5.50601,0.0531 -11.02451,0.10603 -16.50418,0.70497 -4.99687,0.64684 -9.89698,2.01247 -14.94491,2.12809 -5.73993,-0.0182 -11.48004,-0.0577 -17.21995,-0.0185 -5.26186,0.0802 -10.64163,0.0351 -15.72757,1.55769 -14.27658,6.5348 0.76184,-0.27036 32.73867,-19.45018 0.87931,-0.52742 -2.07652,0.53877 -2.80684,1.25848 -0.51839,0.51086 -0.61213,1.36953 -1.29344,1.75907 0.58763,3.65158 4.05067,6.04682 5.44613,9.41068 0.35891,0.88948 0.87934,1.71128 1.20076,2.61499 0.14242,0.40043 -0.65694,-0.73877 -0.55027,-1.15017 0.15404,-0.59408 2.02808,-1.30826 2.1769,-1.3803 -11.47272,6.64613 -22.93991,13.30182 -34.41817,19.93839 -0.66257,0.38309 1.30787,-0.79556 1.97092,-1.17781 12.82559,-7.39401 25.62844,-14.82788 38.49473,-22.15081 2.38424,-1.35701 5.10285,-1.98702 7.54047,-3.22839 2.5421,-1.23508 5.10725,-2.41207 7.58938,-3.76598 0.75866,-0.41382 3.00558,-1.7072 2.26067,-1.26912 -36.52691,21.4809 -45.35115,27.02779 -32.29165,18.85696 2.59296,-2.41121 7.17596,-3.6413 5.25908,-7.93038 -2.57834,-3.75627 -7.83997,-2.22736 -11.77868,-2.37981 -5.56222,0.16348 -11.16534,0.38998 -16.58809,1.75652 -4.8168,1.35862 -9.49361,3.15763 -14.25615,4.69337 -1.61538,0.41724 -2.84858,0.66452 -4.38209,1.34316 -0.65635,0.29046 -2.51309,1.38739 -1.89473,1.02299 69.95752,-41.22644 41.25297,-26.85685 31.34632,-17.7927 -3.84329,2.20521 -4.95209,6.34365 -6.31965,10.32902 -1.8804,4.32089 -2.48017,9.56159 -2.79949,14.21079 0.016,5.45796 -0.0385,10.95756 0.86751,16.35733 0.96205,4.10853 2.42914,8.00544 6.73264,9.55523 4.37731,1.11381 8.61032,2.46117 12.74544,4.28974 4.48978,1.3758 9.06326,2.33812 13.53352,3.77 4.36363,1.44619 8.98418,2.28212 13.56052,2.63076 5.76923,0.0944 11.54899,0.23949 17.27988,0.96883 5.65255,0.77106 11.2704,2.10245 17.00984,1.84462 5.69554,0.001 11.3928,-0.0108 17.08599,0.17665 5.33043,0.23295 10.66522,0.60791 15.89442,1.73488 4.97614,0.94581 9.90709,0.98512 14.93908,0.25905 4.98975,-0.6489 9.87956,-2.0198 14.91952,-2.15179 5.71429,0 11.42858,0 17.14286,0 5.71429,0 11.42857,0 17.14286,0 5.71428,0 11.42857,0 17.14286,0 5.71428,0 11.42857,0 17.14285,10e-6 5.71427,1e-5 11.42854,2e-5 17.14281,8e-5 5.71425,4e-5 11.42851,1.6e-4 17.14277,-1.4e-4 5.71528,-4.8e-4 11.43056,-0.001 17.14584,-0.006 5.72014,-0.005 11.44028,-0.015 17.16043,-0.0142 5.67594,0.0104 11.35574,0.008 17.02557,0.30606 5.2387,0.35118 10.44451,0.96889 15.56237,2.1826 5.02203,0.8006 10.18796,0.46977 15.16183,-0.5491 14.91385,-5.09316 0.34906,-0.27768 -32.33998,19.27497 -2.57878,1.54248 3.75745,-0.97295 4.77864,-2.95174 0.33593,-0.65094 0.44757,-1.39497 0.67135,-2.09245 0.45032,-4.79853 1.08026,-9.6352 3.40759,-13.94279 1.13422,-5.15288 2.68872,-7.60475 5.98951,-11.54022 2.19804,-2.51088 2.847,-5.61369 4.13782,-8.48732 1.3289,0.12691 -5.78009,-1.45243 -6.04145,-1.49812 -0.82345,-0.14396 -1.64238,-0.31272 -2.46357,-0.46907 -5.16729,-1.02906 -10.3228,-1.14889 -15.58903,-0.95352 -5.71458,0.006 -11.42942,0.0236 -17.14378,-0.0373 -5.52252,-0.0899 -11.06157,-0.204 -16.53917,-0.98115 -4.95024,-0.78521 -9.84135,-2.15861 -14.90073,-1.83751 -5.63546,-0.0251 -11.27762,-0.0416 -16.90097,-0.45576 -5.06361,-0.45991 -10.04208,-1.33724 -15.03167,-2.29519 -5.53195,-0.28798 -11.0789,-0.037 -16.61622,-0.12102 -5.71592,7.2e-4 -11.43185,0.002 -17.14776,0.008 -5.72122,0.006 -11.44245,0.0193 -17.16367,0.0126 -5.64121,-0.0204 -11.28955,-0.0273 -16.91873,-0.44173 -5.04424,-0.46785 -10.00366,-1.32912 -14.90958,-2.60527 -4.99802,-0.61264 -10.0313,-0.98392 -14.93994,-2.19122 -5.31937,-0.85171 -10.71332,-0.36817 -16.08091,-0.47693 -5.69251,1.4e-4 -11.38666,0.0141 -17.077,-0.16646 -5.33169,-0.22698 -10.67074,-0.58971 -15.89631,-1.7445 -5.15078,-1.02924 -10.29,-1.15461 -15.54036,-0.96504 -5.70564,1.1e-4 -11.41128,6.1e-4 -17.11692,-0.004 -6.50322,-0.006 -13.00643,-0.0197 -19.50959,-0.0474 -9.46074,-0.0359 -18.92259,-0.10141 -28.38272,0.0416 0,0 34.3301,-24.94228 34.3301,-24.94228 z"
       inkscape:connector-curvature="0" />
    <path
       style="fill:#ffffff;fill-opacity:1;stroke:#00fb00;stroke-opacity:1"
       id="path3111"
       d="m 185.67691,337.43864 c -4.84433,-7.57067 -10.84632,-14.283 -15.08821,-22.22721 -2.08748,-4.99149 -2.786,-10.34609 -0.0128,-15.15645 2.86956,-3.58852 3.79059,-7.84306 4.35846,-12.28657 0.25428,-5.01421 1.43626,-9.91699 2.56654,-14.79157 1.64105,-5.07696 4.73297,-9.18929 8.68139,-12.68509 13.24116,-11.18811 33.72422,-20.84401 46.25908,-27.53209 11.73079,-6.25906 -23.08922,13.19231 -34.63384,19.78847 15.31582,-9.24418 28.06924,-21.08407 45.26013,-23.57553 0,0 -33.86217,25.72659 -33.86217,25.72659 l 0,0 c -14.2189,4.21606 -34.54713,21.7818 28.32955,-17.41545 -122.56274,70.14999 31.48741,-18.5748 -12.01923,6.8939 -3.50704,3.38818 -7.55108,5.94276 -9.53058,10.66175 -1.83557,4.30213 -2.36068,9.42904 -2.9935,14.01801 -0.37078,4.86542 -0.78689,9.90119 -3.3834,14.16768 -0.74173,0.91409 -1.77667,1.58045 -2.44033,2.55271 -1.65323,2.42196 -0.41098,6.09833 0.19414,8.61041 4.03047,7.92063 9.92582,14.6396 14.97184,21.91503 0,0 -36.65711,21.33541 -36.65711,21.33541 z"
       inkscape:connector-curvature="0" />
  </g>
</svg>
